<?xml version="1.0" encoding="UTF-8" standalone="no"?>
<!DOCTYPE svg PUBLIC "-//W3C//DTD SVG 1.1//EN"
 "http://www.w3.org/Graphics/SVG/1.1/DTD/svg11.dtd">
<!-- Generated by graphviz version 2.26.3 (20100126.1600)
 -->
<!-- Title: controllers_diagram Pages: 1 -->
<svg width="1114pt" height="1140pt"
 viewBox="0.00 0.00 1114.00 1140.02" xmlns="http://www.w3.org/2000/svg" xmlns:xlink="http://www.w3.org/1999/xlink">
<g id="graph1" class="graph" transform="scale(1 1) rotate(0) translate(4 1136.02)">
<title>controllers_diagram</title>
<polygon fill="none" stroke="none" points="-4,5 -4,-1136.02 1111,-1136.02 1111,5 -4,5"/>
<!-- _diagram_info -->
<g id="node1" class="node"><title>_diagram_info</title>
<text text-anchor="start" x="897" y="-137.3" font-family="Times,serif" font-size="13.00">Controllers diagram</text>
<text text-anchor="start" x="897" y="-123.3" font-family="Times,serif" font-size="13.00">Date: Oct 30 2015 &#45; 18:26</text>
<text text-anchor="start" x="897" y="-109.3" font-family="Times,serif" font-size="13.00">Migration version: 20151025051302</text>
<text text-anchor="start" x="897" y="-95.3" font-family="Times,serif" font-size="13.00">Generated by RailRoady 1.3.1</text>
<text text-anchor="start" x="897" y="-81.3" font-family="Times,serif" font-size="13.00">http://railroady.prestonlee.com</text>
</g>
<!-- AdminsController -->
<g id="node2" class="node"><title>AdminsController</title>
<polyline fill="none" stroke="black" points="13,-565.474 111,-565.474 "/>
<path fill="none" stroke="black" d="M111,-565.474C117,-565.474 123,-571.474 123,-577.474"/>
<polyline fill="none" stroke="black" points="123,-577.474 123,-781.474 "/>
<path fill="none" stroke="black" d="M123,-781.474C123,-787.474 117,-793.474 111,-793.474"/>
<polyline fill="none" stroke="black" points="111,-793.474 13,-793.474 "/>
<path fill="none" stroke="black" d="M13,-793.474C7,-793.474 1,-787.474 1,-781.474"/>
<polyline fill="none" stroke="black" points="1,-781.474 1,-577.474 "/>
<path fill="none" stroke="black" d="M1,-577.474C1,-571.474 7,-565.474 13,-565.474"/>
<text text-anchor="middle" x="62" y="-776.874" font-family="Times,serif" font-size="14.00">AdminsController</text>
<polyline fill="none" stroke="black" points="1,-770.474 123,-770.474 "/>
<text text-anchor="start" x="9" y="-753.874" font-family="Times,serif" font-size="14.00">create</text>
<text text-anchor="start" x="9" y="-738.874" font-family="Times,serif" font-size="14.00">destroy</text>
<text text-anchor="start" x="9" y="-723.874" font-family="Times,serif" font-size="14.00">edit</text>
<text text-anchor="start" x="9" y="-708.874" font-family="Times,serif" font-size="14.00">index</text>
<text text-anchor="start" x="9" y="-693.874" font-family="Times,serif" font-size="14.00">new</text>
<text text-anchor="start" x="9" y="-678.874" font-family="Times,serif" font-size="14.00">show</text>
<text text-anchor="start" x="9" y="-663.874" font-family="Times,serif" font-size="14.00">update</text>
<polyline fill="none" stroke="black" points="1,-657.474 123,-657.474 "/>
<polyline fill="none" stroke="black" points="1,-633.474 123,-633.474 "/>
<text text-anchor="start" x="9" y="-616.874" font-family="Times,serif" font-size="14.00">_layout</text>
<text text-anchor="start" x="9" y="-601.874" font-family="Times,serif" font-size="14.00">admin_params</text>
<text text-anchor="start" x="9" y="-586.874" font-family="Times,serif" font-size="14.00">logged_in_user</text>
<text text-anchor="start" x="9" y="-571.874" font-family="Times,serif" font-size="14.00">set_admin</text>
</g>
<!-- ApplicationController -->
<g id="node3" class="node"><title>ApplicationController</title>
<polyline fill="none" stroke="black" points="328.21,-483.839 449.21,-483.839 "/>
<path fill="none" stroke="black" d="M449.21,-483.839C455.21,-483.839 461.21,-489.839 461.21,-495.839"/>
<polyline fill="none" stroke="black" points="461.21,-495.839 461.21,-565.839 "/>
<path fill="none" stroke="black" d="M461.21,-565.839C461.21,-571.839 455.21,-577.839 449.21,-577.839"/>
<polyline fill="none" stroke="black" points="449.21,-577.839 328.21,-577.839 "/>
<path fill="none" stroke="black" d="M328.21,-577.839C322.21,-577.839 316.21,-571.839 316.21,-565.839"/>
<polyline fill="none" stroke="black" points="316.21,-565.839 316.21,-495.839 "/>
<path fill="none" stroke="black" d="M316.21,-495.839C316.21,-489.839 322.21,-483.839 328.21,-483.839"/>
<text text-anchor="middle" x="388.71" y="-561.239" font-family="Times,serif" font-size="14.00">ApplicationController</text>
<polyline fill="none" stroke="black" points="316.21,-554.839 461.21,-554.839 "/>
<polyline fill="none" stroke="black" points="316.21,-530.839 461.21,-530.839 "/>
<polyline fill="none" stroke="black" points="316.21,-506.839 461.21,-506.839 "/>
<text text-anchor="start" x="324.21" y="-490.239" font-family="Times,serif" font-size="14.00">_layout</text>
</g>
<!-- ApplicationController&#45;&gt;AdminsController -->
<g id="edge2" class="edge"><title>ApplicationController&#45;&gt;AdminsController</title>
<path fill="none" stroke="black" d="M316.202,-563.826C258.207,-590.21 177.812,-626.786 123.065,-651.692"/>
</g>
<!-- CountriesController -->
<g id="node4" class="node"><title>CountriesController</title>
<polyline fill="none" stroke="black" points="333.661,-60.2366 441.661,-60.2366 "/>
<path fill="none" stroke="black" d="M441.661,-60.2366C447.661,-60.2366 453.661,-66.2366 453.661,-72.2366"/>
<polyline fill="none" stroke="black" points="453.661,-72.2366 453.661,-261.237 "/>
<path fill="none" stroke="black" d="M453.661,-261.237C453.661,-267.237 447.661,-273.237 441.661,-273.237"/>
<polyline fill="none" stroke="black" points="441.661,-273.237 333.661,-273.237 "/>
<path fill="none" stroke="black" d="M333.661,-273.237C327.661,-273.237 321.661,-267.237 321.661,-261.237"/>
<polyline fill="none" stroke="black" points="321.661,-261.237 321.661,-72.2366 "/>
<path fill="none" stroke="black" d="M321.661,-72.2366C321.661,-66.2366 327.661,-60.2366 333.661,-60.2366"/>
<text text-anchor="middle" x="387.661" y="-256.637" font-family="Times,serif" font-size="14.00">CountriesController</text>
<polyline fill="none" stroke="black" points="321.661,-250.237 453.661,-250.237 "/>
<text text-anchor="start" x="329.661" y="-233.637" font-family="Times,serif" font-size="14.00">create</text>
<text text-anchor="start" x="329.661" y="-218.637" font-family="Times,serif" font-size="14.00">destroy</text>
<text text-anchor="start" x="329.661" y="-203.637" font-family="Times,serif" font-size="14.00">edit</text>
<text text-anchor="start" x="329.661" y="-188.637" font-family="Times,serif" font-size="14.00">index</text>
<text text-anchor="start" x="329.661" y="-173.637" font-family="Times,serif" font-size="14.00">new</text>
<text text-anchor="start" x="329.661" y="-158.637" font-family="Times,serif" font-size="14.00">show</text>
<text text-anchor="start" x="329.661" y="-143.637" font-family="Times,serif" font-size="14.00">update</text>
<polyline fill="none" stroke="black" points="321.661,-137.237 453.661,-137.237 "/>
<polyline fill="none" stroke="black" points="321.661,-113.237 453.661,-113.237 "/>
<text text-anchor="start" x="329.661" y="-96.6366" font-family="Times,serif" font-size="14.00">_layout</text>
<text text-anchor="start" x="329.661" y="-81.6366" font-family="Times,serif" font-size="14.00">country_params</text>
<text text-anchor="start" x="329.661" y="-66.6366" font-family="Times,serif" font-size="14.00">set_country</text>
</g>
<!-- ApplicationController&#45;&gt;CountriesController -->
<g id="edge4" class="edge"><title>ApplicationController&#45;&gt;CountriesController</title>
<path fill="none" stroke="black" d="M388.574,-483.612C388.421,-430.697 388.169,-343.21 387.969,-273.554"/>
</g>
<!-- GroupsController -->
<g id="node5" class="node"><title>GroupsController</title>
<polyline fill="none" stroke="black" points="280.024,-686.229 374.024,-686.229 "/>
<path fill="none" stroke="black" d="M374.024,-686.229C380.024,-686.229 386.024,-692.229 386.024,-698.229"/>
<polyline fill="none" stroke="black" points="386.024,-698.229 386.024,-887.229 "/>
<path fill="none" stroke="black" d="M386.024,-887.229C386.024,-893.229 380.024,-899.229 374.024,-899.229"/>
<polyline fill="none" stroke="black" points="374.024,-899.229 280.024,-899.229 "/>
<path fill="none" stroke="black" d="M280.024,-899.229C274.024,-899.229 268.024,-893.229 268.024,-887.229"/>
<polyline fill="none" stroke="black" points="268.024,-887.229 268.024,-698.229 "/>
<path fill="none" stroke="black" d="M268.024,-698.229C268.024,-692.229 274.024,-686.229 280.024,-686.229"/>
<text text-anchor="middle" x="327.024" y="-882.629" font-family="Times,serif" font-size="14.00">GroupsController</text>
<polyline fill="none" stroke="black" points="268.024,-876.229 386.024,-876.229 "/>
<text text-anchor="start" x="276.024" y="-859.629" font-family="Times,serif" font-size="14.00">create</text>
<text text-anchor="start" x="276.024" y="-844.629" font-family="Times,serif" font-size="14.00">destroy</text>
<text text-anchor="start" x="276.024" y="-829.629" font-family="Times,serif" font-size="14.00">edit</text>
<text text-anchor="start" x="276.024" y="-814.629" font-family="Times,serif" font-size="14.00">index</text>
<text text-anchor="start" x="276.024" y="-799.629" font-family="Times,serif" font-size="14.00">new</text>
<text text-anchor="start" x="276.024" y="-784.629" font-family="Times,serif" font-size="14.00">show</text>
<text text-anchor="start" x="276.024" y="-769.629" font-family="Times,serif" font-size="14.00">update</text>
<polyline fill="none" stroke="black" points="268.024,-763.229 386.024,-763.229 "/>
<polyline fill="none" stroke="black" points="268.024,-739.229 386.024,-739.229 "/>
<text text-anchor="start" x="276.024" y="-722.629" font-family="Times,serif" font-size="14.00">_layout</text>
<text text-anchor="start" x="276.024" y="-707.629" font-family="Times,serif" font-size="14.00">group_params</text>
<text text-anchor="start" x="276.024" y="-692.629" font-family="Times,serif" font-size="14.00">set_group</text>
</g>
<!-- ApplicationController&#45;&gt;GroupsController -->
<g id="edge6" class="edge"><title>ApplicationController&#45;&gt;GroupsController</title>
<path fill="none" stroke="black" d="M377.61,-577.962C370.517,-608.078 361.02,-648.398 352.171,-685.967"/>
</g>
<!-- HomepageController -->
<g id="node6" class="node"><title>HomepageController</title>
<polyline fill="none" stroke="black" points="659.495,-945.352 775.495,-945.352 "/>
<path fill="none" stroke="black" d="M775.495,-945.352C781.495,-945.352 787.495,-951.352 787.495,-957.352"/>
<polyline fill="none" stroke="black" points="787.495,-957.352 787.495,-1026.35 "/>
<path fill="none" stroke="black" d="M787.495,-1026.35C787.495,-1032.35 781.495,-1038.35 775.495,-1038.35"/>
<polyline fill="none" stroke="black" points="775.495,-1038.35 659.495,-1038.35 "/>
<path fill="none" stroke="black" d="M659.495,-1038.35C653.495,-1038.35 647.495,-1032.35 647.495,-1026.35"/>
<polyline fill="none" stroke="black" points="647.495,-1026.35 647.495,-957.352 "/>
<path fill="none" stroke="black" d="M647.495,-957.352C647.495,-951.352 653.495,-945.352 659.495,-945.352"/>
<text text-anchor="middle" x="717.495" y="-1021.75" font-family="Times,serif" font-size="14.00">HomepageController</text>
<polyline fill="none" stroke="black" points="647.495,-1015.35 787.495,-1015.35 "/>
<text text-anchor="start" x="655.495" y="-998.752" font-family="Times,serif" font-size="14.00">index</text>
<polyline fill="none" stroke="black" points="647.495,-992.352 787.495,-992.352 "/>
<polyline fill="none" stroke="black" points="647.495,-968.352 787.495,-968.352 "/>
<text text-anchor="start" x="655.495" y="-951.752" font-family="Times,serif" font-size="14.00">_layout</text>
</g>
<!-- ApplicationController&#45;&gt;HomepageController -->
<g id="edge8" class="edge"><title>ApplicationController&#45;&gt;HomepageController</title>
<path fill="none" stroke="black" d="M422.35,-578.009C485.525,-666.59 621.197,-856.826 684.147,-945.093"/>
</g>
<!-- PasswordResetsController -->
<g id="node7" class="node"><title>PasswordResetsController</title>
<polyline fill="none" stroke="black" points="361.543,-917.521 505.543,-917.521 "/>
<path fill="none" stroke="black" d="M505.543,-917.521C511.543,-917.521 517.543,-923.521 517.543,-929.521"/>
<polyline fill="none" stroke="black" points="517.543,-929.521 517.543,-1118.52 "/>
<path fill="none" stroke="black" d="M517.543,-1118.52C517.543,-1124.52 511.543,-1130.52 505.543,-1130.52"/>
<polyline fill="none" stroke="black" points="505.543,-1130.52 361.543,-1130.52 "/>
<path fill="none" stroke="black" d="M361.543,-1130.52C355.543,-1130.52 349.543,-1124.52 349.543,-1118.52"/>
<polyline fill="none" stroke="black" points="349.543,-1118.52 349.543,-929.521 "/>
<path fill="none" stroke="black" d="M349.543,-929.521C349.543,-923.521 355.543,-917.521 361.543,-917.521"/>
<text text-anchor="middle" x="433.543" y="-1113.92" font-family="Times,serif" font-size="14.00">PasswordResetsController</text>
<polyline fill="none" stroke="black" points="349.543,-1107.52 517.543,-1107.52 "/>
<text text-anchor="start" x="357.543" y="-1090.92" font-family="Times,serif" font-size="14.00">create</text>
<text text-anchor="start" x="357.543" y="-1075.92" font-family="Times,serif" font-size="14.00">edit</text>
<text text-anchor="start" x="357.543" y="-1060.92" font-family="Times,serif" font-size="14.00">new</text>
<text text-anchor="start" x="357.543" y="-1045.92" font-family="Times,serif" font-size="14.00">update</text>
<polyline fill="none" stroke="black" points="349.543,-1039.52 517.543,-1039.52 "/>
<polyline fill="none" stroke="black" points="349.543,-1015.52 517.543,-1015.52 "/>
<text text-anchor="start" x="357.543" y="-998.921" font-family="Times,serif" font-size="14.00">_layout</text>
<text text-anchor="start" x="357.543" y="-983.921" font-family="Times,serif" font-size="14.00">admin_params</text>
<text text-anchor="start" x="357.543" y="-968.921" font-family="Times,serif" font-size="14.00">check_expiration</text>
<text text-anchor="start" x="357.543" y="-953.921" font-family="Times,serif" font-size="14.00">get_admin</text>
<text text-anchor="start" x="357.543" y="-938.921" font-family="Times,serif" font-size="14.00">password_blank?</text>
<text text-anchor="start" x="357.543" y="-923.921" font-family="Times,serif" font-size="14.00">valid_admin</text>
</g>
<!-- ApplicationController&#45;&gt;PasswordResetsController -->
<g id="edge10" class="edge"><title>ApplicationController&#45;&gt;PasswordResetsController</title>
<path fill="none" stroke="black" d="M393.008,-578.127C400.065,-655.759 414.278,-812.106 423.855,-917.454"/>
</g>
<!-- QuestionsController -->
<g id="node8" class="node"><title>QuestionsController</title>
<polyline fill="none" stroke="black" points="31.6316,-1.5 141.632,-1.5 "/>
<path fill="none" stroke="black" d="M141.632,-1.5C147.632,-1.5 153.632,-7.5 153.632,-13.5"/>
<polyline fill="none" stroke="black" points="153.632,-13.5 153.632,-202.5 "/>
<path fill="none" stroke="black" d="M153.632,-202.5C153.632,-208.5 147.632,-214.5 141.632,-214.5"/>
<polyline fill="none" stroke="black" points="141.632,-214.5 31.6316,-214.5 "/>
<path fill="none" stroke="black" d="M31.6316,-214.5C25.6316,-214.5 19.6316,-208.5 19.6316,-202.5"/>
<polyline fill="none" stroke="black" points="19.6316,-202.5 19.6316,-13.5 "/>
<path fill="none" stroke="black" d="M19.6316,-13.5C19.6316,-7.5 25.6316,-1.5 31.6316,-1.5"/>
<text text-anchor="middle" x="86.6316" y="-197.9" font-family="Times,serif" font-size="14.00">QuestionsController</text>
<polyline fill="none" stroke="black" points="19.6316,-191.5 153.632,-191.5 "/>
<text text-anchor="start" x="27.6316" y="-174.9" font-family="Times,serif" font-size="14.00">create</text>
<text text-anchor="start" x="27.6316" y="-159.9" font-family="Times,serif" font-size="14.00">destroy</text>
<text text-anchor="start" x="27.6316" y="-144.9" font-family="Times,serif" font-size="14.00">edit</text>
<text text-anchor="start" x="27.6316" y="-129.9" font-family="Times,serif" font-size="14.00">index</text>
<text text-anchor="start" x="27.6316" y="-114.9" font-family="Times,serif" font-size="14.00">new</text>
<text text-anchor="start" x="27.6316" y="-99.9" font-family="Times,serif" font-size="14.00">show</text>
<text text-anchor="start" x="27.6316" y="-84.9" font-family="Times,serif" font-size="14.00">update</text>
<polyline fill="none" stroke="black" points="19.6316,-78.5 153.632,-78.5 "/>
<polyline fill="none" stroke="black" points="19.6316,-54.5 153.632,-54.5 "/>
<text text-anchor="start" x="27.6316" y="-37.9" font-family="Times,serif" font-size="14.00">_layout</text>
<text text-anchor="start" x="27.6316" y="-22.9" font-family="Times,serif" font-size="14.00">question_params</text>
<text text-anchor="start" x="27.6316" y="-7.9" font-family="Times,serif" font-size="14.00">set_question</text>
</g>
<!-- ApplicationController&#45;&gt;QuestionsController -->
<g id="edge12" class="edge"><title>ApplicationController&#45;&gt;QuestionsController</title>
<path fill="none" stroke="black" d="M354.937,-483.564C306.44,-415.681 216.06,-289.17 153.689,-201.865"/>
</g>
<!-- SessionsController -->
<g id="node9" class="node"><title>SessionsController</title>
<polyline fill="none" stroke="black" points="627.766,-628.008 728.766,-628.008 "/>
<path fill="none" stroke="black" d="M728.766,-628.008C734.766,-628.008 740.766,-634.008 740.766,-640.008"/>
<polyline fill="none" stroke="black" points="740.766,-640.008 740.766,-739.008 "/>
<path fill="none" stroke="black" d="M740.766,-739.008C740.766,-745.008 734.766,-751.008 728.766,-751.008"/>
<polyline fill="none" stroke="black" points="728.766,-751.008 627.766,-751.008 "/>
<path fill="none" stroke="black" d="M627.766,-751.008C621.766,-751.008 615.766,-745.008 615.766,-739.008"/>
<polyline fill="none" stroke="black" points="615.766,-739.008 615.766,-640.008 "/>
<path fill="none" stroke="black" d="M615.766,-640.008C615.766,-634.008 621.766,-628.008 627.766,-628.008"/>
<text text-anchor="middle" x="678.266" y="-734.408" font-family="Times,serif" font-size="14.00">SessionsController</text>
<polyline fill="none" stroke="black" points="615.766,-728.008 740.766,-728.008 "/>
<text text-anchor="start" x="623.766" y="-711.408" font-family="Times,serif" font-size="14.00">create</text>
<text text-anchor="start" x="623.766" y="-696.408" font-family="Times,serif" font-size="14.00">destroy</text>
<text text-anchor="start" x="623.766" y="-681.408" font-family="Times,serif" font-size="14.00">new</text>
<polyline fill="none" stroke="black" points="615.766,-675.008 740.766,-675.008 "/>
<polyline fill="none" stroke="black" points="615.766,-651.008 740.766,-651.008 "/>
<text text-anchor="start" x="623.766" y="-634.408" font-family="Times,serif" font-size="14.00">_layout</text>
</g>
<!-- ApplicationController&#45;&gt;SessionsController -->
<g id="edge14" class="edge"><title>ApplicationController&#45;&gt;SessionsController</title>
<path fill="none" stroke="black" d="M461.403,-570.673C508.813,-596.652 570.067,-630.218 615.378,-655.047"/>
</g>
<!-- SurveysController -->
<g id="node10" class="node"><title>SurveysController</title>
<polyline fill="none" stroke="black" points="45.4281,-302.379 143.428,-302.379 "/>
<path fill="none" stroke="black" d="M143.428,-302.379C149.428,-302.379 155.428,-308.379 155.428,-314.379"/>
<polyline fill="none" stroke="black" points="155.428,-314.379 155.428,-503.379 "/>
<path fill="none" stroke="black" d="M155.428,-503.379C155.428,-509.379 149.428,-515.379 143.428,-515.379"/>
<polyline fill="none" stroke="black" points="143.428,-515.379 45.4281,-515.379 "/>
<path fill="none" stroke="black" d="M45.4281,-515.379C39.4281,-515.379 33.4281,-509.379 33.4281,-503.379"/>
<polyline fill="none" stroke="black" points="33.4281,-503.379 33.4281,-314.379 "/>
<path fill="none" stroke="black" d="M33.4281,-314.379C33.4281,-308.379 39.4281,-302.379 45.4281,-302.379"/>
<text text-anchor="middle" x="94.4281" y="-498.779" font-family="Times,serif" font-size="14.00">SurveysController</text>
<polyline fill="none" stroke="black" points="33.4281,-492.379 155.428,-492.379 "/>
<text text-anchor="start" x="41.4281" y="-475.779" font-family="Times,serif" font-size="14.00">create</text>
<text text-anchor="start" x="41.4281" y="-460.779" font-family="Times,serif" font-size="14.00">destroy</text>
<text text-anchor="start" x="41.4281" y="-445.779" font-family="Times,serif" font-size="14.00">edit</text>
<text text-anchor="start" x="41.4281" y="-430.779" font-family="Times,serif" font-size="14.00">index</text>
<text text-anchor="start" x="41.4281" y="-415.779" font-family="Times,serif" font-size="14.00">new</text>
<text text-anchor="start" x="41.4281" y="-400.779" font-family="Times,serif" font-size="14.00">show</text>
<text text-anchor="start" x="41.4281" y="-385.779" font-family="Times,serif" font-size="14.00">update</text>
<polyline fill="none" stroke="black" points="33.4281,-379.379 155.428,-379.379 "/>
<polyline fill="none" stroke="black" points="33.4281,-355.379 155.428,-355.379 "/>
<text text-anchor="start" x="41.4281" y="-338.779" font-family="Times,serif" font-size="14.00">_layout</text>
<text text-anchor="start" x="41.4281" y="-323.779" font-family="Times,serif" font-size="14.00">set_survey</text>
<text text-anchor="start" x="41.4281" y="-308.779" font-family="Times,serif" font-size="14.00">survey_params</text>
</g>
<!-- ApplicationController&#45;&gt;SurveysController -->
<g id="edge16" class="edge"><title>ApplicationController&#45;&gt;SurveysController</title>
<path fill="none" stroke="black" d="M315.966,-500.691C266.776,-480.306 202.534,-453.681 155.904,-434.356"/>
</g>
<!-- VisitorsController -->
<g id="node11" class="node"><title>VisitorsController</title>
<polyline fill="none" stroke="black" points="636.871,-293.275 734.871,-293.275 "/>
<path fill="none" stroke="black" d="M734.871,-293.275C740.871,-293.275 746.871,-299.275 746.871,-305.275"/>
<polyline fill="none" stroke="black" points="746.871,-305.275 746.871,-524.275 "/>
<path fill="none" stroke="black" d="M746.871,-524.275C746.871,-530.275 740.871,-536.275 734.871,-536.275"/>
<polyline fill="none" stroke="black" points="734.871,-536.275 636.871,-536.275 "/>
<path fill="none" stroke="black" d="M636.871,-536.275C630.871,-536.275 624.871,-530.275 624.871,-524.275"/>
<polyline fill="none" stroke="black" points="624.871,-524.275 624.871,-305.275 "/>
<path fill="none" stroke="black" d="M624.871,-305.275C624.871,-299.275 630.871,-293.275 636.871,-293.275"/>
<text text-anchor="middle" x="685.871" y="-519.675" font-family="Times,serif" font-size="14.00">VisitorsController</text>
<polyline fill="none" stroke="black" points="624.871,-513.275 746.871,-513.275 "/>
<text text-anchor="start" x="632.871" y="-496.675" font-family="Times,serif" font-size="14.00">create</text>
<text text-anchor="start" x="632.871" y="-481.675" font-family="Times,serif" font-size="14.00">destroy</text>
<text text-anchor="start" x="632.871" y="-466.675" font-family="Times,serif" font-size="14.00">edit</text>
<text text-anchor="start" x="632.871" y="-451.675" font-family="Times,serif" font-size="14.00">filter_area</text>
<text text-anchor="start" x="632.871" y="-436.675" font-family="Times,serif" font-size="14.00">index</text>
<text text-anchor="start" x="632.871" y="-421.675" font-family="Times,serif" font-size="14.00">new</text>
<text text-anchor="start" x="632.871" y="-406.675" font-family="Times,serif" font-size="14.00">show</text>
<text text-anchor="start" x="632.871" y="-391.675" font-family="Times,serif" font-size="14.00">update</text>
<polyline fill="none" stroke="black" points="624.871,-385.275 746.871,-385.275 "/>
<polyline fill="none" stroke="black" points="624.871,-361.275 746.871,-361.275 "/>
<text text-anchor="start" x="632.871" y="-344.675" font-family="Times,serif" font-size="14.00">_layout</text>
<text text-anchor="start" x="632.871" y="-329.675" font-family="Times,serif" font-size="14.00">logged_in_user</text>
<text text-anchor="start" x="632.871" y="-314.675" font-family="Times,serif" font-size="14.00">set_visitor</text>
<text text-anchor="start" x="632.871" y="-299.675" font-family="Times,serif" font-size="14.00">visitor_params</text>
</g>
<!-- ApplicationController&#45;&gt;VisitorsController -->
<g id="edge18" class="edge"><title>ApplicationController&#45;&gt;VisitorsController</title>
<path fill="none" stroke="black" d="M461.404,-502.446C511.405,-482.917 577.079,-457.267 624.458,-438.762"/>
</g>
<!-- VisitorsStatisticsController -->
<g id="node12" class="node"><title>VisitorsStatisticsController</title>
<polyline fill="none" stroke="black" points="612.963,-47.2796 761.963,-47.2796 "/>
<path fill="none" stroke="black" d="M761.963,-47.2796C767.963,-47.2796 773.963,-53.2796 773.963,-59.2796"/>
<polyline fill="none" stroke="black" points="773.963,-59.2796 773.963,-158.28 "/>
<path fill="none" stroke="black" d="M773.963,-158.28C773.963,-164.28 767.963,-170.28 761.963,-170.28"/>
<polyline fill="none" stroke="black" points="761.963,-170.28 612.963,-170.28 "/>
<path fill="none" stroke="black" d="M612.963,-170.28C606.963,-170.28 600.963,-164.28 600.963,-158.28"/>
<polyline fill="none" stroke="black" points="600.963,-158.28 600.963,-59.2796 "/>
<path fill="none" stroke="black" d="M600.963,-59.2796C600.963,-53.2796 606.963,-47.2796 612.963,-47.2796"/>
<text text-anchor="middle" x="687.463" y="-153.68" font-family="Times,serif" font-size="14.00">VisitorsStatisticsController</text>
<polyline fill="none" stroke="black" points="600.963,-147.28 773.963,-147.28 "/>
<text text-anchor="start" x="608.963" y="-130.68" font-family="Times,serif" font-size="14.00">charts</text>
<text text-anchor="start" x="608.963" y="-115.68" font-family="Times,serif" font-size="14.00">show</text>
<polyline fill="none" stroke="black" points="600.963,-109.28 773.963,-109.28 "/>
<polyline fill="none" stroke="black" points="600.963,-85.2796 773.963,-85.2796 "/>
<text text-anchor="start" x="608.963" y="-68.6796" font-family="Times,serif" font-size="14.00">_layout</text>
<text text-anchor="start" x="608.963" y="-53.6796" font-family="Times,serif" font-size="14.00">logged_in_user</text>
</g>
<!-- ApplicationController&#45;&gt;VisitorsStatisticsController -->
<g id="edge20" class="edge"><title>ApplicationController&#45;&gt;VisitorsStatisticsController</title>
<path fill="none" stroke="black" d="M422.111,-483.652C476.392,-406.966 583.73,-255.326 643.923,-170.29"/>
</g>
<!-- ZipcodesController -->
<g id="node13" class="node"><title>ZipcodesController</title>
<polyline fill="none" stroke="black" points="31.0313,-902.239 138.031,-902.239 "/>
<path fill="none" stroke="black" d="M138.031,-902.239C144.031,-902.239 150.031,-908.239 150.031,-914.239"/>
<polyline fill="none" stroke="black" points="150.031,-914.239 150.031,-1103.24 "/>
<path fill="none" stroke="black" d="M150.031,-1103.24C150.031,-1109.24 144.031,-1115.24 138.031,-1115.24"/>
<polyline fill="none" stroke="black" points="138.031,-1115.24 31.0313,-1115.24 "/>
<path fill="none" stroke="black" d="M31.0313,-1115.24C25.0313,-1115.24 19.0313,-1109.24 19.0313,-1103.24"/>
<polyline fill="none" stroke="black" points="19.0313,-1103.24 19.0313,-914.239 "/>
<path fill="none" stroke="black" d="M19.0313,-914.239C19.0313,-908.239 25.0313,-902.239 31.0313,-902.239"/>
<text text-anchor="middle" x="84.5313" y="-1098.64" font-family="Times,serif" font-size="14.00">ZipcodesController</text>
<polyline fill="none" stroke="black" points="19.0313,-1092.24 150.031,-1092.24 "/>
<text text-anchor="start" x="27.0313" y="-1075.64" font-family="Times,serif" font-size="14.00">create</text>
<text text-anchor="start" x="27.0313" y="-1060.64" font-family="Times,serif" font-size="14.00">destroy</text>
<text text-anchor="start" x="27.0313" y="-1045.64" font-family="Times,serif" font-size="14.00">edit</text>
<text text-anchor="start" x="27.0313" y="-1030.64" font-family="Times,serif" font-size="14.00">index</text>
<text text-anchor="start" x="27.0313" y="-1015.64" font-family="Times,serif" font-size="14.00">new</text>
<text text-anchor="start" x="27.0313" y="-1000.64" font-family="Times,serif" font-size="14.00">show</text>
<text text-anchor="start" x="27.0313" y="-985.639" font-family="Times,serif" font-size="14.00">update</text>
<polyline fill="none" stroke="black" points="19.0313,-979.239 150.031,-979.239 "/>
<polyline fill="none" stroke="black" points="19.0313,-955.239 150.031,-955.239 "/>
<text text-anchor="start" x="27.0313" y="-938.639" font-family="Times,serif" font-size="14.00">_layout</text>
<text text-anchor="start" x="27.0313" y="-923.639" font-family="Times,serif" font-size="14.00">set_zipcode</text>
<text text-anchor="start" x="27.0313" y="-908.639" font-family="Times,serif" font-size="14.00">zipcode_params</text>
</g>
<!-- ApplicationController&#45;&gt;ZipcodesController -->
<g id="edge22" class="edge"><title>ApplicationController&#45;&gt;ZipcodesController</title>
<path fill="none" stroke="black" d="M346.533,-578.147C321.429,-607.365 289.722,-646.194 264.824,-683.029 217.319,-753.309 171.134,-837.14 137.403,-902.152"/>
</g>
</g>
</svg>
