<?xml version="1.0" encoding="UTF-8" standalone="no"?>
<!DOCTYPE svg PUBLIC "-//W3C//DTD SVG 1.1//EN"
 "http://www.w3.org/Graphics/SVG/1.1/DTD/svg11.dtd">
<!-- Generated by graphviz version 2.26.3 (20100126.1600)
 -->
<!-- Title: controllers_diagram Pages: 1 -->
<svg width="994pt" height="964pt"
 viewBox="0.00 0.00 994.00 963.88" xmlns="http://www.w3.org/2000/svg" xmlns:xlink="http://www.w3.org/1999/xlink">
<g id="graph1" class="graph" transform="scale(1 1) rotate(0) translate(4 959.879)">
<title>controllers_diagram</title>
<polygon fill="none" stroke="none" points="-4,5 -4,-959.879 991,-959.879 991,5 -4,5"/>
<!-- _diagram_info -->
<g id="node1" class="node"><title>_diagram_info</title>
<text text-anchor="start" x="777" y="-127.3" font-family="Times,serif" font-size="13.00">Controllers diagram</text>
<text text-anchor="start" x="777" y="-113.3" font-family="Times,serif" font-size="13.00">Date: Oct 15 2015 &#45; 13:21</text>
<text text-anchor="start" x="777" y="-99.3" font-family="Times,serif" font-size="13.00">Migration version: 20151009013532</text>
<text text-anchor="start" x="777" y="-85.3" font-family="Times,serif" font-size="13.00">Generated by RailRoady 1.3.1</text>
<text text-anchor="start" x="777" y="-71.3" font-family="Times,serif" font-size="13.00">http://railroady.prestonlee.com</text>
</g>
<!-- AdminsController -->
<g id="node2" class="node"><title>AdminsController</title>
<polyline fill="none" stroke="black" points="21.9254,-488.567 119.925,-488.567 "/>
<path fill="none" stroke="black" d="M119.925,-488.567C125.925,-488.567 131.925,-494.567 131.925,-500.567"/>
<polyline fill="none" stroke="black" points="131.925,-500.567 131.925,-689.567 "/>
<path fill="none" stroke="black" d="M131.925,-689.567C131.925,-695.567 125.925,-701.567 119.925,-701.567"/>
<polyline fill="none" stroke="black" points="119.925,-701.567 21.9254,-701.567 "/>
<path fill="none" stroke="black" d="M21.9254,-701.567C15.9254,-701.567 9.92538,-695.567 9.92538,-689.567"/>
<polyline fill="none" stroke="black" points="9.92538,-689.567 9.92538,-500.567 "/>
<path fill="none" stroke="black" d="M9.92538,-500.567C9.92538,-494.567 15.9254,-488.567 21.9254,-488.567"/>
<text text-anchor="middle" x="70.9254" y="-684.967" font-family="Times,serif" font-size="14.00">AdminsController</text>
<polyline fill="none" stroke="black" points="9.92538,-678.567 131.925,-678.567 "/>
<text text-anchor="start" x="17.9254" y="-661.967" font-family="Times,serif" font-size="14.00">create</text>
<text text-anchor="start" x="17.9254" y="-646.967" font-family="Times,serif" font-size="14.00">destroy</text>
<text text-anchor="start" x="17.9254" y="-631.967" font-family="Times,serif" font-size="14.00">edit</text>
<text text-anchor="start" x="17.9254" y="-616.967" font-family="Times,serif" font-size="14.00">index</text>
<text text-anchor="start" x="17.9254" y="-601.967" font-family="Times,serif" font-size="14.00">new</text>
<text text-anchor="start" x="17.9254" y="-586.967" font-family="Times,serif" font-size="14.00">show</text>
<text text-anchor="start" x="17.9254" y="-571.967" font-family="Times,serif" font-size="14.00">update</text>
<polyline fill="none" stroke="black" points="9.92538,-565.567 131.925,-565.567 "/>
<polyline fill="none" stroke="black" points="9.92538,-541.567 131.925,-541.567 "/>
<text text-anchor="start" x="17.9254" y="-524.967" font-family="Times,serif" font-size="14.00">_layout</text>
<text text-anchor="start" x="17.9254" y="-509.967" font-family="Times,serif" font-size="14.00">admin_params</text>
<text text-anchor="start" x="17.9254" y="-494.967" font-family="Times,serif" font-size="14.00">set_admin</text>
</g>
<!-- ApplicationController -->
<g id="node3" class="node"><title>ApplicationController</title>
<polyline fill="none" stroke="black" points="267.023,-430.65 388.023,-430.65 "/>
<path fill="none" stroke="black" d="M388.023,-430.65C394.023,-430.65 400.023,-436.65 400.023,-442.65"/>
<polyline fill="none" stroke="black" points="400.023,-442.65 400.023,-512.65 "/>
<path fill="none" stroke="black" d="M400.023,-512.65C400.023,-518.65 394.023,-524.65 388.023,-524.65"/>
<polyline fill="none" stroke="black" points="388.023,-524.65 267.023,-524.65 "/>
<path fill="none" stroke="black" d="M267.023,-524.65C261.023,-524.65 255.023,-518.65 255.023,-512.65"/>
<polyline fill="none" stroke="black" points="255.023,-512.65 255.023,-442.65 "/>
<path fill="none" stroke="black" d="M255.023,-442.65C255.023,-436.65 261.023,-430.65 267.023,-430.65"/>
<text text-anchor="middle" x="327.523" y="-508.05" font-family="Times,serif" font-size="14.00">ApplicationController</text>
<polyline fill="none" stroke="black" points="255.023,-501.65 400.023,-501.65 "/>
<polyline fill="none" stroke="black" points="255.023,-477.65 400.023,-477.65 "/>
<polyline fill="none" stroke="black" points="255.023,-453.65 400.023,-453.65 "/>
<text text-anchor="start" x="263.023" y="-437.05" font-family="Times,serif" font-size="14.00">_layout</text>
</g>
<!-- ApplicationController&#45;&gt;AdminsController -->
<g id="edge2" class="edge"><title>ApplicationController&#45;&gt;AdminsController</title>
<path fill="none" stroke="black" d="M255.021,-510.827C216.192,-528.594 168.896,-550.237 131.965,-567.136"/>
</g>
<!-- CountriesController -->
<g id="node4" class="node"><title>CountriesController</title>
<polyline fill="none" stroke="black" points="271.486,-50.03 379.486,-50.03 "/>
<path fill="none" stroke="black" d="M379.486,-50.03C385.486,-50.03 391.486,-56.03 391.486,-62.03"/>
<polyline fill="none" stroke="black" points="391.486,-62.03 391.486,-251.03 "/>
<path fill="none" stroke="black" d="M391.486,-251.03C391.486,-257.03 385.486,-263.03 379.486,-263.03"/>
<polyline fill="none" stroke="black" points="379.486,-263.03 271.486,-263.03 "/>
<path fill="none" stroke="black" d="M271.486,-263.03C265.486,-263.03 259.486,-257.03 259.486,-251.03"/>
<polyline fill="none" stroke="black" points="259.486,-251.03 259.486,-62.03 "/>
<path fill="none" stroke="black" d="M259.486,-62.03C259.486,-56.03 265.486,-50.03 271.486,-50.03"/>
<text text-anchor="middle" x="325.486" y="-246.43" font-family="Times,serif" font-size="14.00">CountriesController</text>
<polyline fill="none" stroke="black" points="259.486,-240.03 391.486,-240.03 "/>
<text text-anchor="start" x="267.486" y="-223.43" font-family="Times,serif" font-size="14.00">create</text>
<text text-anchor="start" x="267.486" y="-208.43" font-family="Times,serif" font-size="14.00">destroy</text>
<text text-anchor="start" x="267.486" y="-193.43" font-family="Times,serif" font-size="14.00">edit</text>
<text text-anchor="start" x="267.486" y="-178.43" font-family="Times,serif" font-size="14.00">index</text>
<text text-anchor="start" x="267.486" y="-163.43" font-family="Times,serif" font-size="14.00">new</text>
<text text-anchor="start" x="267.486" y="-148.43" font-family="Times,serif" font-size="14.00">show</text>
<text text-anchor="start" x="267.486" y="-133.43" font-family="Times,serif" font-size="14.00">update</text>
<polyline fill="none" stroke="black" points="259.486,-127.03 391.486,-127.03 "/>
<polyline fill="none" stroke="black" points="259.486,-103.03 391.486,-103.03 "/>
<text text-anchor="start" x="267.486" y="-86.43" font-family="Times,serif" font-size="14.00">_layout</text>
<text text-anchor="start" x="267.486" y="-71.43" font-family="Times,serif" font-size="14.00">country_params</text>
<text text-anchor="start" x="267.486" y="-56.43" font-family="Times,serif" font-size="14.00">set_country</text>
</g>
<!-- ApplicationController&#45;&gt;CountriesController -->
<g id="edge4" class="edge"><title>ApplicationController&#45;&gt;CountriesController</title>
<path fill="none" stroke="black" d="M327.224,-430.613C326.946,-386.8 326.522,-319.897 326.162,-263.159"/>
</g>
<!-- GroupsController -->
<g id="node5" class="node"><title>GroupsController</title>
<polyline fill="none" stroke="black" points="282.29,-692.688 376.29,-692.688 "/>
<path fill="none" stroke="black" d="M376.29,-692.688C382.29,-692.688 388.29,-698.688 388.29,-704.688"/>
<polyline fill="none" stroke="black" points="388.29,-704.688 388.29,-893.688 "/>
<path fill="none" stroke="black" d="M388.29,-893.688C388.29,-899.688 382.29,-905.688 376.29,-905.688"/>
<polyline fill="none" stroke="black" points="376.29,-905.688 282.29,-905.688 "/>
<path fill="none" stroke="black" d="M282.29,-905.688C276.29,-905.688 270.29,-899.688 270.29,-893.688"/>
<polyline fill="none" stroke="black" points="270.29,-893.688 270.29,-704.688 "/>
<path fill="none" stroke="black" d="M270.29,-704.688C270.29,-698.688 276.29,-692.688 282.29,-692.688"/>
<text text-anchor="middle" x="329.29" y="-889.088" font-family="Times,serif" font-size="14.00">GroupsController</text>
<polyline fill="none" stroke="black" points="270.29,-882.688 388.29,-882.688 "/>
<text text-anchor="start" x="278.29" y="-866.088" font-family="Times,serif" font-size="14.00">create</text>
<text text-anchor="start" x="278.29" y="-851.088" font-family="Times,serif" font-size="14.00">destroy</text>
<text text-anchor="start" x="278.29" y="-836.088" font-family="Times,serif" font-size="14.00">edit</text>
<text text-anchor="start" x="278.29" y="-821.088" font-family="Times,serif" font-size="14.00">index</text>
<text text-anchor="start" x="278.29" y="-806.088" font-family="Times,serif" font-size="14.00">new</text>
<text text-anchor="start" x="278.29" y="-791.088" font-family="Times,serif" font-size="14.00">show</text>
<text text-anchor="start" x="278.29" y="-776.088" font-family="Times,serif" font-size="14.00">update</text>
<polyline fill="none" stroke="black" points="270.29,-769.688 388.29,-769.688 "/>
<polyline fill="none" stroke="black" points="270.29,-745.688 388.29,-745.688 "/>
<text text-anchor="start" x="278.29" y="-729.088" font-family="Times,serif" font-size="14.00">_layout</text>
<text text-anchor="start" x="278.29" y="-714.088" font-family="Times,serif" font-size="14.00">group_params</text>
<text text-anchor="start" x="278.29" y="-699.088" font-family="Times,serif" font-size="14.00">set_group</text>
</g>
<!-- ApplicationController&#45;&gt;GroupsController -->
<g id="edge6" class="edge"><title>ApplicationController&#45;&gt;GroupsController</title>
<path fill="none" stroke="black" d="M327.781,-524.749C328.022,-568.619 328.391,-635.609 328.703,-692.42"/>
</g>
<!-- HomepageController -->
<g id="node6" class="node"><title>HomepageController</title>
<polyline fill="none" stroke="black" points="530.871,-798.963 646.871,-798.963 "/>
<path fill="none" stroke="black" d="M646.871,-798.963C652.871,-798.963 658.871,-804.963 658.871,-810.963"/>
<polyline fill="none" stroke="black" points="658.871,-810.963 658.871,-879.963 "/>
<path fill="none" stroke="black" d="M658.871,-879.963C658.871,-885.963 652.871,-891.963 646.871,-891.963"/>
<polyline fill="none" stroke="black" points="646.871,-891.963 530.871,-891.963 "/>
<path fill="none" stroke="black" d="M530.871,-891.963C524.871,-891.963 518.871,-885.963 518.871,-879.963"/>
<polyline fill="none" stroke="black" points="518.871,-879.963 518.871,-810.963 "/>
<path fill="none" stroke="black" d="M518.871,-810.963C518.871,-804.963 524.871,-798.963 530.871,-798.963"/>
<text text-anchor="middle" x="588.871" y="-875.363" font-family="Times,serif" font-size="14.00">HomepageController</text>
<polyline fill="none" stroke="black" points="518.871,-868.963 658.871,-868.963 "/>
<text text-anchor="start" x="526.871" y="-852.363" font-family="Times,serif" font-size="14.00">index</text>
<polyline fill="none" stroke="black" points="518.871,-845.963 658.871,-845.963 "/>
<polyline fill="none" stroke="black" points="518.871,-821.963 658.871,-821.963 "/>
<text text-anchor="start" x="526.871" y="-805.363" font-family="Times,serif" font-size="14.00">_layout</text>
</g>
<!-- ApplicationController&#45;&gt;HomepageController -->
<g id="edge8" class="edge"><title>ApplicationController&#45;&gt;HomepageController</title>
<path fill="none" stroke="black" d="M361.154,-524.982C411.474,-595.801 505.778,-728.52 555.78,-798.892"/>
</g>
<!-- QuestionsController -->
<g id="node7" class="node"><title>QuestionsController</title>
<polyline fill="none" stroke="black" points="13,-741.379 123,-741.379 "/>
<path fill="none" stroke="black" d="M123,-741.379C129,-741.379 135,-747.379 135,-753.379"/>
<polyline fill="none" stroke="black" points="135,-753.379 135,-942.379 "/>
<path fill="none" stroke="black" d="M135,-942.379C135,-948.379 129,-954.379 123,-954.379"/>
<polyline fill="none" stroke="black" points="123,-954.379 13,-954.379 "/>
<path fill="none" stroke="black" d="M13,-954.379C7,-954.379 1,-948.379 1,-942.379"/>
<polyline fill="none" stroke="black" points="1,-942.379 1,-753.379 "/>
<path fill="none" stroke="black" d="M1,-753.379C1,-747.379 7,-741.379 13,-741.379"/>
<text text-anchor="middle" x="68" y="-937.779" font-family="Times,serif" font-size="14.00">QuestionsController</text>
<polyline fill="none" stroke="black" points="1,-931.379 135,-931.379 "/>
<text text-anchor="start" x="9" y="-914.779" font-family="Times,serif" font-size="14.00">create</text>
<text text-anchor="start" x="9" y="-899.779" font-family="Times,serif" font-size="14.00">destroy</text>
<text text-anchor="start" x="9" y="-884.779" font-family="Times,serif" font-size="14.00">edit</text>
<text text-anchor="start" x="9" y="-869.779" font-family="Times,serif" font-size="14.00">index</text>
<text text-anchor="start" x="9" y="-854.779" font-family="Times,serif" font-size="14.00">new</text>
<text text-anchor="start" x="9" y="-839.779" font-family="Times,serif" font-size="14.00">show</text>
<text text-anchor="start" x="9" y="-824.779" font-family="Times,serif" font-size="14.00">update</text>
<polyline fill="none" stroke="black" points="1,-818.379 135,-818.379 "/>
<polyline fill="none" stroke="black" points="1,-794.379 135,-794.379 "/>
<text text-anchor="start" x="9" y="-777.779" font-family="Times,serif" font-size="14.00">_layout</text>
<text text-anchor="start" x="9" y="-762.779" font-family="Times,serif" font-size="14.00">question_params</text>
<text text-anchor="start" x="9" y="-747.779" font-family="Times,serif" font-size="14.00">set_question</text>
</g>
<!-- ApplicationController&#45;&gt;QuestionsController -->
<g id="edge10" class="edge"><title>ApplicationController&#45;&gt;QuestionsController</title>
<path fill="none" stroke="black" d="M294.39,-524.916C254.421,-581.936 186.232,-679.212 135.112,-752.139"/>
</g>
<!-- SessionsController -->
<g id="node8" class="node"><title>SessionsController</title>
<polyline fill="none" stroke="black" points="15.4463,-49.0029 116.446,-49.0029 "/>
<path fill="none" stroke="black" d="M116.446,-49.0029C122.446,-49.0029 128.446,-55.0029 128.446,-61.0029"/>
<polyline fill="none" stroke="black" points="128.446,-61.0029 128.446,-160.003 "/>
<path fill="none" stroke="black" d="M128.446,-160.003C128.446,-166.003 122.446,-172.003 116.446,-172.003"/>
<polyline fill="none" stroke="black" points="116.446,-172.003 15.4463,-172.003 "/>
<path fill="none" stroke="black" d="M15.4463,-172.003C9.44632,-172.003 3.44632,-166.003 3.44632,-160.003"/>
<polyline fill="none" stroke="black" points="3.44632,-160.003 3.44632,-61.0029 "/>
<path fill="none" stroke="black" d="M3.44632,-61.0029C3.44632,-55.0029 9.44632,-49.0029 15.4463,-49.0029"/>
<text text-anchor="middle" x="65.9463" y="-155.403" font-family="Times,serif" font-size="14.00">SessionsController</text>
<polyline fill="none" stroke="black" points="3.44632,-149.003 128.446,-149.003 "/>
<text text-anchor="start" x="11.4463" y="-132.403" font-family="Times,serif" font-size="14.00">create</text>
<text text-anchor="start" x="11.4463" y="-117.403" font-family="Times,serif" font-size="14.00">destroy</text>
<text text-anchor="start" x="11.4463" y="-102.403" font-family="Times,serif" font-size="14.00">new</text>
<polyline fill="none" stroke="black" points="3.44632,-96.0029 128.446,-96.0029 "/>
<polyline fill="none" stroke="black" points="3.44632,-72.0029 128.446,-72.0029 "/>
<text text-anchor="start" x="11.4463" y="-55.4029" font-family="Times,serif" font-size="14.00">_layout</text>
</g>
<!-- ApplicationController&#45;&gt;SessionsController -->
<g id="edge12" class="edge"><title>ApplicationController&#45;&gt;SessionsController</title>
<path fill="none" stroke="black" d="M293.861,-430.404C246.947,-364.555 161.835,-245.092 109.945,-172.259"/>
</g>
<!-- SurveysController -->
<g id="node9" class="node"><title>SurveysController</title>
<polyline fill="none" stroke="black" points="536.37,-482.642 634.37,-482.642 "/>
<path fill="none" stroke="black" d="M634.37,-482.642C640.37,-482.642 646.37,-488.642 646.37,-494.642"/>
<polyline fill="none" stroke="black" points="646.37,-494.642 646.37,-683.642 "/>
<path fill="none" stroke="black" d="M646.37,-683.642C646.37,-689.642 640.37,-695.642 634.37,-695.642"/>
<polyline fill="none" stroke="black" points="634.37,-695.642 536.37,-695.642 "/>
<path fill="none" stroke="black" d="M536.37,-695.642C530.37,-695.642 524.37,-689.642 524.37,-683.642"/>
<polyline fill="none" stroke="black" points="524.37,-683.642 524.37,-494.642 "/>
<path fill="none" stroke="black" d="M524.37,-494.642C524.37,-488.642 530.37,-482.642 536.37,-482.642"/>
<text text-anchor="middle" x="585.37" y="-679.042" font-family="Times,serif" font-size="14.00">SurveysController</text>
<polyline fill="none" stroke="black" points="524.37,-672.642 646.37,-672.642 "/>
<text text-anchor="start" x="532.37" y="-656.042" font-family="Times,serif" font-size="14.00">create</text>
<text text-anchor="start" x="532.37" y="-641.042" font-family="Times,serif" font-size="14.00">destroy</text>
<text text-anchor="start" x="532.37" y="-626.042" font-family="Times,serif" font-size="14.00">edit</text>
<text text-anchor="start" x="532.37" y="-611.042" font-family="Times,serif" font-size="14.00">index</text>
<text text-anchor="start" x="532.37" y="-596.042" font-family="Times,serif" font-size="14.00">new</text>
<text text-anchor="start" x="532.37" y="-581.042" font-family="Times,serif" font-size="14.00">show</text>
<text text-anchor="start" x="532.37" y="-566.042" font-family="Times,serif" font-size="14.00">update</text>
<polyline fill="none" stroke="black" points="524.37,-559.642 646.37,-559.642 "/>
<polyline fill="none" stroke="black" points="524.37,-535.642 646.37,-535.642 "/>
<text text-anchor="start" x="532.37" y="-519.042" font-family="Times,serif" font-size="14.00">_layout</text>
<text text-anchor="start" x="532.37" y="-504.042" font-family="Times,serif" font-size="14.00">set_survey</text>
<text text-anchor="start" x="532.37" y="-489.042" font-family="Times,serif" font-size="14.00">survey_params</text>
</g>
<!-- ApplicationController&#45;&gt;SurveysController -->
<g id="edge14" class="edge"><title>ApplicationController&#45;&gt;SurveysController</title>
<path fill="none" stroke="black" d="M400.033,-509.004C439.209,-525.943 487.04,-546.625 524.298,-562.735"/>
</g>
<!-- VisitorsController -->
<g id="node10" class="node"><title>VisitorsController</title>
<polyline fill="none" stroke="black" points="20.4512,-260.202 118.451,-260.202 "/>
<path fill="none" stroke="black" d="M118.451,-260.202C124.451,-260.202 130.451,-266.202 130.451,-272.202"/>
<polyline fill="none" stroke="black" points="130.451,-272.202 130.451,-461.202 "/>
<path fill="none" stroke="black" d="M130.451,-461.202C130.451,-467.202 124.451,-473.202 118.451,-473.202"/>
<polyline fill="none" stroke="black" points="118.451,-473.202 20.4512,-473.202 "/>
<path fill="none" stroke="black" d="M20.4512,-473.202C14.4512,-473.202 8.45119,-467.202 8.45119,-461.202"/>
<polyline fill="none" stroke="black" points="8.45119,-461.202 8.45119,-272.202 "/>
<path fill="none" stroke="black" d="M8.45119,-272.202C8.45119,-266.202 14.4512,-260.202 20.4512,-260.202"/>
<text text-anchor="middle" x="69.4512" y="-456.602" font-family="Times,serif" font-size="14.00">VisitorsController</text>
<polyline fill="none" stroke="black" points="8.45119,-450.202 130.451,-450.202 "/>
<text text-anchor="start" x="16.4512" y="-433.602" font-family="Times,serif" font-size="14.00">create</text>
<text text-anchor="start" x="16.4512" y="-418.602" font-family="Times,serif" font-size="14.00">destroy</text>
<text text-anchor="start" x="16.4512" y="-403.602" font-family="Times,serif" font-size="14.00">edit</text>
<text text-anchor="start" x="16.4512" y="-388.602" font-family="Times,serif" font-size="14.00">index</text>
<text text-anchor="start" x="16.4512" y="-373.602" font-family="Times,serif" font-size="14.00">new</text>
<text text-anchor="start" x="16.4512" y="-358.602" font-family="Times,serif" font-size="14.00">show</text>
<text text-anchor="start" x="16.4512" y="-343.602" font-family="Times,serif" font-size="14.00">update</text>
<polyline fill="none" stroke="black" points="8.45119,-337.202 130.451,-337.202 "/>
<polyline fill="none" stroke="black" points="8.45119,-313.202 130.451,-313.202 "/>
<text text-anchor="start" x="16.4512" y="-296.602" font-family="Times,serif" font-size="14.00">_layout</text>
<text text-anchor="start" x="16.4512" y="-281.602" font-family="Times,serif" font-size="14.00">set_visitor</text>
<text text-anchor="start" x="16.4512" y="-266.602" font-family="Times,serif" font-size="14.00">visitor_params</text>
</g>
<!-- ApplicationController&#45;&gt;VisitorsController -->
<g id="edge16" class="edge"><title>ApplicationController&#45;&gt;VisitorsController</title>
<path fill="none" stroke="black" d="M254.948,-446.45C215.739,-429.593 167.866,-409.012 130.576,-392.98"/>
</g>
<!-- VisitorsStatisticsController -->
<g id="node11" class="node"><title>VisitorsStatisticsController</title>
<polyline fill="none" stroke="black" points="509.732,-314.158 658.732,-314.158 "/>
<path fill="none" stroke="black" d="M658.732,-314.158C664.732,-314.158 670.732,-320.158 670.732,-326.158"/>
<polyline fill="none" stroke="black" points="670.732,-326.158 670.732,-395.158 "/>
<path fill="none" stroke="black" d="M670.732,-395.158C670.732,-401.158 664.732,-407.158 658.732,-407.158"/>
<polyline fill="none" stroke="black" points="658.732,-407.158 509.732,-407.158 "/>
<path fill="none" stroke="black" d="M509.732,-407.158C503.732,-407.158 497.732,-401.158 497.732,-395.158"/>
<polyline fill="none" stroke="black" points="497.732,-395.158 497.732,-326.158 "/>
<path fill="none" stroke="black" d="M497.732,-326.158C497.732,-320.158 503.732,-314.158 509.732,-314.158"/>
<text text-anchor="middle" x="584.232" y="-390.558" font-family="Times,serif" font-size="14.00">VisitorsStatisticsController</text>
<polyline fill="none" stroke="black" points="497.732,-384.158 670.732,-384.158 "/>
<text text-anchor="start" x="505.732" y="-367.558" font-family="Times,serif" font-size="14.00">show</text>
<polyline fill="none" stroke="black" points="497.732,-361.158 670.732,-361.158 "/>
<polyline fill="none" stroke="black" points="497.732,-337.158 670.732,-337.158 "/>
<text text-anchor="start" x="505.732" y="-320.558" font-family="Times,serif" font-size="14.00">_layout</text>
</g>
<!-- ApplicationController&#45;&gt;VisitorsStatisticsController -->
<g id="edge18" class="edge"><title>ApplicationController&#45;&gt;VisitorsStatisticsController</title>
<path fill="none" stroke="black" d="M400.056,-444.594C430.302,-430.81 465.684,-414.685 497.308,-400.273"/>
</g>
<!-- ZipcodesController -->
<g id="node12" class="node"><title>ZipcodesController</title>
<polyline fill="none" stroke="black" points="533.363,-1.5 640.363,-1.5 "/>
<path fill="none" stroke="black" d="M640.363,-1.5C646.363,-1.5 652.363,-7.5 652.363,-13.5"/>
<polyline fill="none" stroke="black" points="652.363,-13.5 652.363,-202.5 "/>
<path fill="none" stroke="black" d="M652.363,-202.5C652.363,-208.5 646.363,-214.5 640.363,-214.5"/>
<polyline fill="none" stroke="black" points="640.363,-214.5 533.363,-214.5 "/>
<path fill="none" stroke="black" d="M533.363,-214.5C527.363,-214.5 521.363,-208.5 521.363,-202.5"/>
<polyline fill="none" stroke="black" points="521.363,-202.5 521.363,-13.5 "/>
<path fill="none" stroke="black" d="M521.363,-13.5C521.363,-7.5 527.363,-1.5 533.363,-1.5"/>
<text text-anchor="middle" x="586.863" y="-197.9" font-family="Times,serif" font-size="14.00">ZipcodesController</text>
<polyline fill="none" stroke="black" points="521.363,-191.5 652.363,-191.5 "/>
<text text-anchor="start" x="529.363" y="-174.9" font-family="Times,serif" font-size="14.00">create</text>
<text text-anchor="start" x="529.363" y="-159.9" font-family="Times,serif" font-size="14.00">destroy</text>
<text text-anchor="start" x="529.363" y="-144.9" font-family="Times,serif" font-size="14.00">edit</text>
<text text-anchor="start" x="529.363" y="-129.9" font-family="Times,serif" font-size="14.00">index</text>
<text text-anchor="start" x="529.363" y="-114.9" font-family="Times,serif" font-size="14.00">new</text>
<text text-anchor="start" x="529.363" y="-99.9" font-family="Times,serif" font-size="14.00">show</text>
<text text-anchor="start" x="529.363" y="-84.9" font-family="Times,serif" font-size="14.00">update</text>
<polyline fill="none" stroke="black" points="521.363,-78.5 652.363,-78.5 "/>
<polyline fill="none" stroke="black" points="521.363,-54.5 652.363,-54.5 "/>
<text text-anchor="start" x="529.363" y="-37.9" font-family="Times,serif" font-size="14.00">_layout</text>
<text text-anchor="start" x="529.363" y="-22.9" font-family="Times,serif" font-size="14.00">set_zipcode</text>
<text text-anchor="start" x="529.363" y="-7.9" font-family="Times,serif" font-size="14.00">zipcode_params</text>
</g>
<!-- ApplicationController&#45;&gt;ZipcodesController -->
<g id="edge20" class="edge"><title>ApplicationController&#45;&gt;ZipcodesController</title>
<path fill="none" stroke="black" d="M360.632,-430.458C400.915,-373.041 469.881,-274.74 521.104,-201.729"/>
</g>
</g>
</svg>
