<?xml version="1.0" encoding="UTF-8" standalone="no"?>
<!DOCTYPE svg PUBLIC "-//W3C//DTD SVG 1.1//EN"
 "http://www.w3.org/Graphics/SVG/1.1/DTD/svg11.dtd">
<!-- Generated by graphviz version 2.26.3 (20100126.1600)
 -->
<!-- Title: models_diagram Pages: 1 -->
<svg width="1076pt" height="304pt"
 viewBox="0.00 0.00 1076.00 304.00" xmlns="http://www.w3.org/2000/svg" xmlns:xlink="http://www.w3.org/1999/xlink">
<g id="graph1" class="graph" transform="scale(1 1) rotate(0) translate(4 300)">
<title>models_diagram</title>
<polygon fill="none" stroke="none" points="-4,5 -4,-300 1073,-300 1073,5 -4,5"/>
<!-- _diagram_info -->
<g id="node1" class="node"><title>_diagram_info</title>
<text text-anchor="start" x="234" y="-280.3" font-family="Times,serif" font-size="13.00">Models diagram</text>
<text text-anchor="start" x="234" y="-266.3" font-family="Times,serif" font-size="13.00">Date: Oct 15 2015 &#45; 13:21</text>
<text text-anchor="start" x="234" y="-252.3" font-family="Times,serif" font-size="13.00">Migration version: 20151009013532</text>
<text text-anchor="start" x="234" y="-238.3" font-family="Times,serif" font-size="13.00">Generated by RailRoady 1.3.1</text>
<text text-anchor="start" x="234" y="-224.3" font-family="Times,serif" font-size="13.00">http://railroady.prestonlee.com</text>
</g>
<!-- Admin -->
<g id="node2" class="node"><title>Admin</title>
<polyline fill="none" stroke="black" points="12,-30.5 144,-30.5 "/>
<path fill="none" stroke="black" d="M144,-30.5C150,-30.5 156,-36.5 156,-42.5"/>
<polyline fill="none" stroke="black" points="156,-42.5 156,-139.5 "/>
<path fill="none" stroke="black" d="M156,-139.5C156,-145.5 150,-151.5 144,-151.5"/>
<polyline fill="none" stroke="black" points="144,-151.5 12,-151.5 "/>
<path fill="none" stroke="black" d="M12,-151.5C6,-151.5 0,-145.5 0,-139.5"/>
<polyline fill="none" stroke="black" points="0,-139.5 0,-42.5 "/>
<path fill="none" stroke="black" d="M0,-42.5C0,-36.5 6,-30.5 12,-30.5"/>
<text text-anchor="middle" x="78" y="-134.9" font-family="Times,serif" font-size="14.00">Admin</text>
<polyline fill="none" stroke="black" points="0,-128.5 156,-128.5 "/>
<text text-anchor="start" x="8" y="-111.9" font-family="Times,serif" font-size="14.00">id :integer</text>
<text text-anchor="start" x="8" y="-96.9" font-family="Times,serif" font-size="14.00">user_name :string</text>
<text text-anchor="start" x="8" y="-81.9" font-family="Times,serif" font-size="14.00">password_digest :string</text>
<text text-anchor="start" x="8" y="-66.9" font-family="Times,serif" font-size="14.00">created_at :datetime</text>
<text text-anchor="start" x="8" y="-51.9" font-family="Times,serif" font-size="14.00">updated_at :datetime</text>
<text text-anchor="start" x="8" y="-36.9" font-family="Times,serif" font-size="14.00">remember_digest :string</text>
</g>
<!-- Country -->
<g id="node3" class="node"><title>Country</title>
<polyline fill="none" stroke="black" points="185.5,-45.5 296.5,-45.5 "/>
<path fill="none" stroke="black" d="M296.5,-45.5C302.5,-45.5 308.5,-51.5 308.5,-57.5"/>
<polyline fill="none" stroke="black" points="308.5,-57.5 308.5,-124.5 "/>
<path fill="none" stroke="black" d="M308.5,-124.5C308.5,-130.5 302.5,-136.5 296.5,-136.5"/>
<polyline fill="none" stroke="black" points="296.5,-136.5 185.5,-136.5 "/>
<path fill="none" stroke="black" d="M185.5,-136.5C179.5,-136.5 173.5,-130.5 173.5,-124.5"/>
<polyline fill="none" stroke="black" points="173.5,-124.5 173.5,-57.5 "/>
<path fill="none" stroke="black" d="M173.5,-57.5C173.5,-51.5 179.5,-45.5 185.5,-45.5"/>
<text text-anchor="middle" x="241" y="-119.9" font-family="Times,serif" font-size="14.00">Country</text>
<polyline fill="none" stroke="black" points="173.5,-113.5 308.5,-113.5 "/>
<text text-anchor="start" x="181.5" y="-96.9" font-family="Times,serif" font-size="14.00">id :integer</text>
<text text-anchor="start" x="181.5" y="-81.9" font-family="Times,serif" font-size="14.00">name :string</text>
<text text-anchor="start" x="181.5" y="-66.9" font-family="Times,serif" font-size="14.00">created_at :datetime</text>
<text text-anchor="start" x="181.5" y="-51.9" font-family="Times,serif" font-size="14.00">updated_at :datetime</text>
</g>
<!-- Group -->
<g id="node4" class="node"><title>Group</title>
<polyline fill="none" stroke="black" points="337.5,-38 448.5,-38 "/>
<path fill="none" stroke="black" d="M448.5,-38C454.5,-38 460.5,-44 460.5,-50"/>
<polyline fill="none" stroke="black" points="460.5,-50 460.5,-132 "/>
<path fill="none" stroke="black" d="M460.5,-132C460.5,-138 454.5,-144 448.5,-144"/>
<polyline fill="none" stroke="black" points="448.5,-144 337.5,-144 "/>
<path fill="none" stroke="black" d="M337.5,-144C331.5,-144 325.5,-138 325.5,-132"/>
<polyline fill="none" stroke="black" points="325.5,-132 325.5,-50 "/>
<path fill="none" stroke="black" d="M325.5,-50C325.5,-44 331.5,-38 337.5,-38"/>
<text text-anchor="middle" x="393" y="-127.4" font-family="Times,serif" font-size="14.00">Group</text>
<polyline fill="none" stroke="black" points="325.5,-121 460.5,-121 "/>
<text text-anchor="start" x="333.5" y="-104.4" font-family="Times,serif" font-size="14.00">id :integer</text>
<text text-anchor="start" x="333.5" y="-89.4" font-family="Times,serif" font-size="14.00">group_size :integer</text>
<text text-anchor="start" x="333.5" y="-74.4" font-family="Times,serif" font-size="14.00">visit_date :datetime</text>
<text text-anchor="start" x="333.5" y="-59.4" font-family="Times,serif" font-size="14.00">created_at :datetime</text>
<text text-anchor="start" x="333.5" y="-44.4" font-family="Times,serif" font-size="14.00">updated_at :datetime</text>
</g>
<!-- Question -->
<g id="node5" class="node"><title>Question</title>
<polyline fill="none" stroke="black" points="489.5,-45.5 600.5,-45.5 "/>
<path fill="none" stroke="black" d="M600.5,-45.5C606.5,-45.5 612.5,-51.5 612.5,-57.5"/>
<polyline fill="none" stroke="black" points="612.5,-57.5 612.5,-124.5 "/>
<path fill="none" stroke="black" d="M612.5,-124.5C612.5,-130.5 606.5,-136.5 600.5,-136.5"/>
<polyline fill="none" stroke="black" points="600.5,-136.5 489.5,-136.5 "/>
<path fill="none" stroke="black" d="M489.5,-136.5C483.5,-136.5 477.5,-130.5 477.5,-124.5"/>
<polyline fill="none" stroke="black" points="477.5,-124.5 477.5,-57.5 "/>
<path fill="none" stroke="black" d="M477.5,-57.5C477.5,-51.5 483.5,-45.5 489.5,-45.5"/>
<text text-anchor="middle" x="545" y="-119.9" font-family="Times,serif" font-size="14.00">Question</text>
<polyline fill="none" stroke="black" points="477.5,-113.5 612.5,-113.5 "/>
<text text-anchor="start" x="485.5" y="-96.9" font-family="Times,serif" font-size="14.00">id :integer</text>
<text text-anchor="start" x="485.5" y="-81.9" font-family="Times,serif" font-size="14.00">question :text</text>
<text text-anchor="start" x="485.5" y="-66.9" font-family="Times,serif" font-size="14.00">created_at :datetime</text>
<text text-anchor="start" x="485.5" y="-51.9" font-family="Times,serif" font-size="14.00">updated_at :datetime</text>
</g>
<!-- Survey -->
<g id="node6" class="node"><title>Survey</title>
<polyline fill="none" stroke="black" points="641.5,-30.5 752.5,-30.5 "/>
<path fill="none" stroke="black" d="M752.5,-30.5C758.5,-30.5 764.5,-36.5 764.5,-42.5"/>
<polyline fill="none" stroke="black" points="764.5,-42.5 764.5,-139.5 "/>
<path fill="none" stroke="black" d="M764.5,-139.5C764.5,-145.5 758.5,-151.5 752.5,-151.5"/>
<polyline fill="none" stroke="black" points="752.5,-151.5 641.5,-151.5 "/>
<path fill="none" stroke="black" d="M641.5,-151.5C635.5,-151.5 629.5,-145.5 629.5,-139.5"/>
<polyline fill="none" stroke="black" points="629.5,-139.5 629.5,-42.5 "/>
<path fill="none" stroke="black" d="M629.5,-42.5C629.5,-36.5 635.5,-30.5 641.5,-30.5"/>
<text text-anchor="middle" x="697" y="-134.9" font-family="Times,serif" font-size="14.00">Survey</text>
<polyline fill="none" stroke="black" points="629.5,-128.5 764.5,-128.5 "/>
<text text-anchor="start" x="637.5" y="-111.9" font-family="Times,serif" font-size="14.00">id :integer</text>
<text text-anchor="start" x="637.5" y="-96.9" font-family="Times,serif" font-size="14.00">person_id :integer</text>
<text text-anchor="start" x="637.5" y="-81.9" font-family="Times,serif" font-size="14.00">question_id :integer</text>
<text text-anchor="start" x="637.5" y="-66.9" font-family="Times,serif" font-size="14.00">answer :string</text>
<text text-anchor="start" x="637.5" y="-51.9" font-family="Times,serif" font-size="14.00">created_at :datetime</text>
<text text-anchor="start" x="637.5" y="-36.9" font-family="Times,serif" font-size="14.00">updated_at :datetime</text>
</g>
<!-- Visitor -->
<g id="node7" class="node"><title>Visitor</title>
<polyline fill="none" stroke="black" points="793.5,-0.5 904.5,-0.5 "/>
<path fill="none" stroke="black" d="M904.5,-0.5C910.5,-0.5 916.5,-6.5 916.5,-12.5"/>
<polyline fill="none" stroke="black" points="916.5,-12.5 916.5,-169.5 "/>
<path fill="none" stroke="black" d="M916.5,-169.5C916.5,-175.5 910.5,-181.5 904.5,-181.5"/>
<polyline fill="none" stroke="black" points="904.5,-181.5 793.5,-181.5 "/>
<path fill="none" stroke="black" d="M793.5,-181.5C787.5,-181.5 781.5,-175.5 781.5,-169.5"/>
<polyline fill="none" stroke="black" points="781.5,-169.5 781.5,-12.5 "/>
<path fill="none" stroke="black" d="M781.5,-12.5C781.5,-6.5 787.5,-0.5 793.5,-0.5"/>
<text text-anchor="middle" x="849" y="-164.9" font-family="Times,serif" font-size="14.00">Visitor</text>
<polyline fill="none" stroke="black" points="781.5,-158.5 916.5,-158.5 "/>
<text text-anchor="start" x="789.5" y="-141.9" font-family="Times,serif" font-size="14.00">id :integer</text>
<text text-anchor="start" x="789.5" y="-126.9" font-family="Times,serif" font-size="14.00">last_name :string</text>
<text text-anchor="start" x="789.5" y="-111.9" font-family="Times,serif" font-size="14.00">first_name :string</text>
<text text-anchor="start" x="789.5" y="-96.9" font-family="Times,serif" font-size="14.00">group_id :integer</text>
<text text-anchor="start" x="789.5" y="-81.9" font-family="Times,serif" font-size="14.00">email :string</text>
<text text-anchor="start" x="789.5" y="-66.9" font-family="Times,serif" font-size="14.00">contact :boolean</text>
<text text-anchor="start" x="789.5" y="-51.9" font-family="Times,serif" font-size="14.00">country_id :integer</text>
<text text-anchor="start" x="789.5" y="-36.9" font-family="Times,serif" font-size="14.00">created_at :datetime</text>
<text text-anchor="start" x="789.5" y="-21.9" font-family="Times,serif" font-size="14.00">updated_at :datetime</text>
<text text-anchor="start" x="789.5" y="-6.9" font-family="Times,serif" font-size="14.00">zip_code :string</text>
</g>
<!-- Zipcode -->
<g id="node8" class="node"><title>Zipcode</title>
<polyline fill="none" stroke="black" points="945.5,-38 1056.5,-38 "/>
<path fill="none" stroke="black" d="M1056.5,-38C1062.5,-38 1068.5,-44 1068.5,-50"/>
<polyline fill="none" stroke="black" points="1068.5,-50 1068.5,-132 "/>
<path fill="none" stroke="black" d="M1068.5,-132C1068.5,-138 1062.5,-144 1056.5,-144"/>
<polyline fill="none" stroke="black" points="1056.5,-144 945.5,-144 "/>
<path fill="none" stroke="black" d="M945.5,-144C939.5,-144 933.5,-138 933.5,-132"/>
<polyline fill="none" stroke="black" points="933.5,-132 933.5,-50 "/>
<path fill="none" stroke="black" d="M933.5,-50C933.5,-44 939.5,-38 945.5,-38"/>
<text text-anchor="middle" x="1001" y="-127.4" font-family="Times,serif" font-size="14.00">Zipcode</text>
<polyline fill="none" stroke="black" points="933.5,-121 1068.5,-121 "/>
<text text-anchor="start" x="941.5" y="-104.4" font-family="Times,serif" font-size="14.00">zip_code :string</text>
<text text-anchor="start" x="941.5" y="-89.4" font-family="Times,serif" font-size="14.00">city :string</text>
<text text-anchor="start" x="941.5" y="-74.4" font-family="Times,serif" font-size="14.00">county :string</text>
<text text-anchor="start" x="941.5" y="-59.4" font-family="Times,serif" font-size="14.00">created_at :datetime</text>
<text text-anchor="start" x="941.5" y="-44.4" font-family="Times,serif" font-size="14.00">updated_at :datetime</text>
</g>
<!-- ActiveRecord::Base -->
<g id="node9" class="node"><title>ActiveRecord::Base</title>
<ellipse fill="none" stroke="black" cx="545" cy="-257" rx="85.1424" ry="18"/>
<text text-anchor="middle" x="545" y="-251.9" font-family="Times,serif" font-size="14.00">ActiveRecord::Base</text>
</g>
<!-- ActiveRecord::Base&#45;&gt;Admin -->
<g id="edge2" class="edge"><title>ActiveRecord::Base&#45;&gt;Admin</title>
<path fill="none" stroke="black" d="M510.951,-240.276C493.429,-232.344 471.493,-223.435 451,-218 327.167,-185.158 279.423,-239.626 165,-182 150.164,-174.528 136.469,-163.473 124.545,-151.619"/>
</g>
<!-- ActiveRecord::Base&#45;&gt;Country -->
<g id="edge4" class="edge"><title>ActiveRecord::Base&#45;&gt;Country</title>
<path fill="none" stroke="black" d="M508.819,-240.687C491.523,-233.226 470.403,-224.6 451,-218 392.618,-198.141 368.96,-215.211 317,-182 298.963,-170.471 283.038,-153.291 270.486,-136.954"/>
</g>
<!-- ActiveRecord::Base&#45;&gt;Group -->
<g id="edge6" class="edge"><title>ActiveRecord::Base&#45;&gt;Group</title>
<path fill="none" stroke="black" d="M526.07,-239.297C510.381,-224.397 487.704,-202.324 469,-182 457.988,-170.035 446.535,-156.788 435.962,-144.191"/>
</g>
<!-- ActiveRecord::Base&#45;&gt;Question -->
<g id="edge8" class="edge"><title>ActiveRecord::Base&#45;&gt;Question</title>
<path fill="none" stroke="black" d="M545,-238.919C545,-214.55 545,-170.332 545,-136.568"/>
</g>
<!-- ActiveRecord::Base&#45;&gt;Survey -->
<g id="edge10" class="edge"><title>ActiveRecord::Base&#45;&gt;Survey</title>
<path fill="none" stroke="black" d="M563.93,-239.297C579.619,-224.397 602.296,-202.324 621,-182 629.781,-172.458 638.844,-162.101 647.516,-151.909"/>
</g>
<!-- ActiveRecord::Base&#45;&gt;Visitor -->
<g id="edge12" class="edge"><title>ActiveRecord::Base&#45;&gt;Visitor</title>
<path fill="none" stroke="black" d="M610.74,-245.512C658.791,-234.812 723.871,-215.351 773,-182 775.725,-180.15 778.406,-178.176 781.038,-176.101"/>
</g>
<!-- ActiveRecord::Base&#45;&gt;Zipcode -->
<g id="edge14" class="edge"><title>ActiveRecord::Base&#45;&gt;Zipcode</title>
<path fill="none" stroke="black" d="M619.442,-248.287C714.938,-236.097 874.308,-212.038 925,-182 940.938,-172.556 955.062,-158.505 966.679,-144.254"/>
</g>
</g>
</svg>
