<?xml version="1.0" encoding="UTF-8" standalone="no"?>
<!DOCTYPE svg PUBLIC "-//W3C//DTD SVG 1.1//EN"
 "http://www.w3.org/Graphics/SVG/1.1/DTD/svg11.dtd">
<!-- Generated by graphviz version 2.26.3 (20100126.1600)
 -->
<!-- Title: models_diagram Pages: 1 -->
<svg width="656pt" height="158pt"
 viewBox="0.00 0.00 656.00 158.00" xmlns="http://www.w3.org/2000/svg" xmlns:xlink="http://www.w3.org/1999/xlink">
<g id="graph1" class="graph" transform="scale(1 1) rotate(0) translate(4 154)">
<title>models_diagram</title>
<polygon fill="none" stroke="none" points="-4,5 -4,-154 653,-154 653,5 -4,5"/>
<!-- _diagram_info -->
<g id="node1" class="node"><title>_diagram_info</title>
<text text-anchor="start" x="11" y="-134.3" font-family="Times,serif" font-size="13.00">Models diagram</text>
<text text-anchor="start" x="11" y="-120.3" font-family="Times,serif" font-size="13.00">Date: Oct 15 2015 &#45; 13:21</text>
<text text-anchor="start" x="11" y="-106.3" font-family="Times,serif" font-size="13.00">Migration version: 20151009013532</text>
<text text-anchor="start" x="11" y="-92.3" font-family="Times,serif" font-size="13.00">Generated by RailRoady 1.3.1</text>
<text text-anchor="start" x="11" y="-78.3" font-family="Times,serif" font-size="13.00">http://railroady.prestonlee.com</text>
</g>
<!-- Admin -->
<g id="node2" class="node"><title>Admin</title>
<ellipse fill="none" stroke="black" cx="37" cy="-18" rx="37.0467" ry="18"/>
<text text-anchor="middle" x="37" y="-12.9" font-family="Times,serif" font-size="14.00">Admin</text>
</g>
<!-- Country -->
<g id="node3" class="node"><title>Country</title>
<ellipse fill="none" stroke="black" cx="133" cy="-18" rx="40.9464" ry="18"/>
<text text-anchor="middle" x="133" y="-12.9" font-family="Times,serif" font-size="14.00">Country</text>
</g>
<!-- Group -->
<g id="node4" class="node"><title>Group</title>
<ellipse fill="none" stroke="black" cx="226" cy="-18" rx="33.9477" ry="18"/>
<text text-anchor="middle" x="226" y="-12.9" font-family="Times,serif" font-size="14.00">Group</text>
</g>
<!-- Question -->
<g id="node5" class="node"><title>Question</title>
<ellipse fill="none" stroke="black" cx="322" cy="-18" rx="44.1961" ry="18"/>
<text text-anchor="middle" x="322" y="-12.9" font-family="Times,serif" font-size="14.00">Question</text>
</g>
<!-- Survey -->
<g id="node6" class="node"><title>Survey</title>
<ellipse fill="none" stroke="black" cx="420" cy="-18" rx="35.8982" ry="18"/>
<text text-anchor="middle" x="420" y="-12.9" font-family="Times,serif" font-size="14.00">Survey</text>
</g>
<!-- Visitor -->
<g id="node7" class="node"><title>Visitor</title>
<ellipse fill="none" stroke="black" cx="510" cy="-18" rx="35.8982" ry="18"/>
<text text-anchor="middle" x="510" y="-12.9" font-family="Times,serif" font-size="14.00">Visitor</text>
</g>
<!-- Zipcode -->
<g id="node8" class="node"><title>Zipcode</title>
<ellipse fill="none" stroke="black" cx="606" cy="-18" rx="42.2463" ry="18"/>
<text text-anchor="middle" x="606" y="-12.9" font-family="Times,serif" font-size="14.00">Zipcode</text>
</g>
<!-- ActiveRecord::Base -->
<g id="node9" class="node"><title>ActiveRecord::Base</title>
<ellipse fill="none" stroke="black" cx="322" cy="-111" rx="85.1424" ry="18"/>
<text text-anchor="middle" x="322" y="-105.9" font-family="Times,serif" font-size="14.00">ActiveRecord::Base</text>
</g>
<!-- ActiveRecord::Base&#45;&gt;Admin -->
<g id="edge2" class="edge"><title>ActiveRecord::Base&#45;&gt;Admin</title>
<path fill="none" stroke="black" d="M285.875,-94.5209C268.591,-87.0233 247.466,-78.4144 228,-72 164.935,-51.2186 146.273,-56.1405 83,-36 77.2798,-34.1792 71.2485,-32.0083 65.5039,-29.8149"/>
</g>
<!-- ActiveRecord::Base&#45;&gt;Country -->
<g id="edge4" class="edge"><title>ActiveRecord::Base&#45;&gt;Country</title>
<path fill="none" stroke="black" d="M288.211,-94.3735C251.685,-76.4007 194.176,-48.1027 160.369,-31.4671"/>
</g>
<!-- ActiveRecord::Base&#45;&gt;Group -->
<g id="edge6" class="edge"><title>ActiveRecord::Base&#45;&gt;Group</title>
<path fill="none" stroke="black" d="M303.49,-93.0687C285.837,-75.9671 259.495,-50.4483 242.53,-34.0137"/>
</g>
<!-- ActiveRecord::Base&#45;&gt;Question -->
<g id="edge8" class="edge"><title>ActiveRecord::Base&#45;&gt;Question</title>
<path fill="none" stroke="black" d="M322,-92.6262C322,-76.2161 322,-52.3202 322,-36.0192"/>
</g>
<!-- ActiveRecord::Base&#45;&gt;Survey -->
<g id="edge10" class="edge"><title>ActiveRecord::Base&#45;&gt;Survey</title>
<path fill="none" stroke="black" d="M340.895,-93.0687C358.916,-75.9671 385.807,-50.4483 403.125,-34.0137"/>
</g>
<!-- ActiveRecord::Base&#45;&gt;Visitor -->
<g id="edge12" class="edge"><title>ActiveRecord::Base&#45;&gt;Visitor</title>
<path fill="none" stroke="black" d="M355.611,-94.3735C392.471,-76.1395 450.815,-47.2779 484.227,-30.7492"/>
</g>
<!-- ActiveRecord::Base&#45;&gt;Zipcode -->
<g id="edge14" class="edge"><title>ActiveRecord::Base&#45;&gt;Zipcode</title>
<path fill="none" stroke="black" d="M369.876,-96.0185C417.069,-81.1497 491.178,-57.5297 555,-36 561.05,-33.9591 567.484,-31.7324 573.672,-29.5627"/>
</g>
</g>
</svg>
