<?xml version="1.0" encoding="UTF-8" standalone="no"?>
<!DOCTYPE svg PUBLIC "-//W3C//DTD SVG 1.1//EN"
 "http://www.w3.org/Graphics/SVG/1.1/DTD/svg11.dtd">
<!-- Generated by graphviz version 2.26.3 (20100126.1600)
 -->
<!-- Title: models_diagram Pages: 1 -->
<svg width="1088pt" height="492pt"
 viewBox="0.00 0.00 1088.00 492.00" xmlns="http://www.w3.org/2000/svg" xmlns:xlink="http://www.w3.org/1999/xlink">
<g id="graph1" class="graph" transform="scale(1 1) rotate(0) translate(4 488)">
<title>models_diagram</title>
<polygon fill="none" stroke="none" points="-4,5 -4,-488 1085,-488 1085,5 -4,5"/>
<!-- _diagram_info -->
<g id="node1" class="node"><title>_diagram_info</title>
<text text-anchor="start" x="310" y="-468.3" font-family="Times,serif" font-size="13.00">Models diagram</text>
<text text-anchor="start" x="310" y="-454.3" font-family="Times,serif" font-size="13.00">Date: Oct 30 2015 &#45; 18:26</text>
<text text-anchor="start" x="310" y="-440.3" font-family="Times,serif" font-size="13.00">Migration version: 20151025051302</text>
<text text-anchor="start" x="310" y="-426.3" font-family="Times,serif" font-size="13.00">Generated by RailRoady 1.3.1</text>
<text text-anchor="start" x="310" y="-412.3" font-family="Times,serif" font-size="13.00">http://railroady.prestonlee.com</text>
</g>
<!-- Admin -->
<g id="node2" class="node"><title>Admin</title>
<polyline fill="none" stroke="black" points="12,-218.5 144,-218.5 "/>
<path fill="none" stroke="black" d="M144,-218.5C150,-218.5 156,-224.5 156,-230.5"/>
<polyline fill="none" stroke="black" points="156,-230.5 156,-357.5 "/>
<path fill="none" stroke="black" d="M156,-357.5C156,-363.5 150,-369.5 144,-369.5"/>
<polyline fill="none" stroke="black" points="144,-369.5 12,-369.5 "/>
<path fill="none" stroke="black" d="M12,-369.5C6,-369.5 0,-363.5 0,-357.5"/>
<polyline fill="none" stroke="black" points="0,-357.5 0,-230.5 "/>
<path fill="none" stroke="black" d="M0,-230.5C0,-224.5 6,-218.5 12,-218.5"/>
<text text-anchor="middle" x="78" y="-352.9" font-family="Times,serif" font-size="14.00">Admin</text>
<polyline fill="none" stroke="black" points="0,-346.5 156,-346.5 "/>
<text text-anchor="start" x="8" y="-329.9" font-family="Times,serif" font-size="14.00">id :integer</text>
<text text-anchor="start" x="8" y="-314.9" font-family="Times,serif" font-size="14.00">user_name :string</text>
<text text-anchor="start" x="8" y="-299.9" font-family="Times,serif" font-size="14.00">password_digest :string</text>
<text text-anchor="start" x="8" y="-284.9" font-family="Times,serif" font-size="14.00">created_at :datetime</text>
<text text-anchor="start" x="8" y="-269.9" font-family="Times,serif" font-size="14.00">updated_at :datetime</text>
<text text-anchor="start" x="8" y="-254.9" font-family="Times,serif" font-size="14.00">remember_digest :string</text>
<text text-anchor="start" x="8" y="-239.9" font-family="Times,serif" font-size="14.00">reset_digest :string</text>
<text text-anchor="start" x="8" y="-224.9" font-family="Times,serif" font-size="14.00">reset_sent_at :datetime</text>
</g>
<!-- Country -->
<g id="node3" class="node"><title>Country</title>
<polyline fill="none" stroke="black" points="185.5,-248.5 296.5,-248.5 "/>
<path fill="none" stroke="black" d="M296.5,-248.5C302.5,-248.5 308.5,-254.5 308.5,-260.5"/>
<polyline fill="none" stroke="black" points="308.5,-260.5 308.5,-327.5 "/>
<path fill="none" stroke="black" d="M308.5,-327.5C308.5,-333.5 302.5,-339.5 296.5,-339.5"/>
<polyline fill="none" stroke="black" points="296.5,-339.5 185.5,-339.5 "/>
<path fill="none" stroke="black" d="M185.5,-339.5C179.5,-339.5 173.5,-333.5 173.5,-327.5"/>
<polyline fill="none" stroke="black" points="173.5,-327.5 173.5,-260.5 "/>
<path fill="none" stroke="black" d="M173.5,-260.5C173.5,-254.5 179.5,-248.5 185.5,-248.5"/>
<text text-anchor="middle" x="241" y="-322.9" font-family="Times,serif" font-size="14.00">Country</text>
<polyline fill="none" stroke="black" points="173.5,-316.5 308.5,-316.5 "/>
<text text-anchor="start" x="181.5" y="-299.9" font-family="Times,serif" font-size="14.00">id :integer</text>
<text text-anchor="start" x="181.5" y="-284.9" font-family="Times,serif" font-size="14.00">name :string</text>
<text text-anchor="start" x="181.5" y="-269.9" font-family="Times,serif" font-size="14.00">created_at :datetime</text>
<text text-anchor="start" x="181.5" y="-254.9" font-family="Times,serif" font-size="14.00">updated_at :datetime</text>
</g>
<!-- Visitor -->
<g id="node8" class="node"><title>Visitor</title>
<polyline fill="none" stroke="black" points="634.5,-0.5 745.5,-0.5 "/>
<path fill="none" stroke="black" d="M745.5,-0.5C751.5,-0.5 757.5,-6.5 757.5,-12.5"/>
<polyline fill="none" stroke="black" points="757.5,-12.5 757.5,-169.5 "/>
<path fill="none" stroke="black" d="M757.5,-169.5C757.5,-175.5 751.5,-181.5 745.5,-181.5"/>
<polyline fill="none" stroke="black" points="745.5,-181.5 634.5,-181.5 "/>
<path fill="none" stroke="black" d="M634.5,-181.5C628.5,-181.5 622.5,-175.5 622.5,-169.5"/>
<polyline fill="none" stroke="black" points="622.5,-169.5 622.5,-12.5 "/>
<path fill="none" stroke="black" d="M622.5,-12.5C622.5,-6.5 628.5,-0.5 634.5,-0.5"/>
<text text-anchor="middle" x="690" y="-164.9" font-family="Times,serif" font-size="14.00">Visitor</text>
<polyline fill="none" stroke="black" points="622.5,-158.5 757.5,-158.5 "/>
<text text-anchor="start" x="630.5" y="-141.9" font-family="Times,serif" font-size="14.00">id :integer</text>
<text text-anchor="start" x="630.5" y="-126.9" font-family="Times,serif" font-size="14.00">last_name :string</text>
<text text-anchor="start" x="630.5" y="-111.9" font-family="Times,serif" font-size="14.00">first_name :string</text>
<text text-anchor="start" x="630.5" y="-96.9" font-family="Times,serif" font-size="14.00">group_id :integer</text>
<text text-anchor="start" x="630.5" y="-81.9" font-family="Times,serif" font-size="14.00">email :string</text>
<text text-anchor="start" x="630.5" y="-66.9" font-family="Times,serif" font-size="14.00">contact :boolean</text>
<text text-anchor="start" x="630.5" y="-51.9" font-family="Times,serif" font-size="14.00">country_id :integer</text>
<text text-anchor="start" x="630.5" y="-36.9" font-family="Times,serif" font-size="14.00">created_at :datetime</text>
<text text-anchor="start" x="630.5" y="-21.9" font-family="Times,serif" font-size="14.00">updated_at :datetime</text>
<text text-anchor="start" x="630.5" y="-6.9" font-family="Times,serif" font-size="14.00">zip_code :string</text>
</g>
<!-- Country&#45;&gt;Visitor -->
<g id="edge4" class="edge"><title>Country&#45;&gt;Visitor</title>
<path fill="none" stroke="#6d368d" d="M285.681,-242.699C295.338,-233.603 305.98,-224.86 317,-218 410.425,-159.845 533.726,-124.628 612.462,-106.486"/>
<ellipse fill="none" stroke="#6d368d" cx="282.674" cy="-245.612" rx="4.00002" ry="4.00002"/>
<polygon fill="#6d368d" stroke="#6d368d" points="612.562,-106.464 623.31,-108.64 617.438,-105.358 622.314,-104.252 622.314,-104.252 622.314,-104.252 617.438,-105.358 621.319,-99.8631 612.562,-106.464 612.562,-106.464"/>
</g>
<!-- Group -->
<g id="node4" class="node"><title>Group</title>
<polyline fill="none" stroke="black" points="337.5,-241 448.5,-241 "/>
<path fill="none" stroke="black" d="M448.5,-241C454.5,-241 460.5,-247 460.5,-253"/>
<polyline fill="none" stroke="black" points="460.5,-253 460.5,-335 "/>
<path fill="none" stroke="black" d="M460.5,-335C460.5,-341 454.5,-347 448.5,-347"/>
<polyline fill="none" stroke="black" points="448.5,-347 337.5,-347 "/>
<path fill="none" stroke="black" d="M337.5,-347C331.5,-347 325.5,-341 325.5,-335"/>
<polyline fill="none" stroke="black" points="325.5,-335 325.5,-253 "/>
<path fill="none" stroke="black" d="M325.5,-253C325.5,-247 331.5,-241 337.5,-241"/>
<text text-anchor="middle" x="393" y="-330.4" font-family="Times,serif" font-size="14.00">Group</text>
<polyline fill="none" stroke="black" points="325.5,-324 460.5,-324 "/>
<text text-anchor="start" x="333.5" y="-307.4" font-family="Times,serif" font-size="14.00">id :integer</text>
<text text-anchor="start" x="333.5" y="-292.4" font-family="Times,serif" font-size="14.00">group_size :integer</text>
<text text-anchor="start" x="333.5" y="-277.4" font-family="Times,serif" font-size="14.00">visit_date :datetime</text>
<text text-anchor="start" x="333.5" y="-262.4" font-family="Times,serif" font-size="14.00">created_at :datetime</text>
<text text-anchor="start" x="333.5" y="-247.4" font-family="Times,serif" font-size="14.00">updated_at :datetime</text>
</g>
<!-- Group&#45;&gt;Visitor -->
<g id="edge8" class="edge"><title>Group&#45;&gt;Visitor</title>
<path fill="none" stroke="#012b7e" d="M448.46,-235.29C455.157,-229.193 462.081,-223.298 469,-218 514.032,-183.518 569.369,-151.729 613.405,-128.581"/>
<ellipse fill="none" stroke="#012b7e" cx="445.312" cy="-238.213" rx="4.00002" ry="4.00002"/>
<polygon fill="#012b7e" stroke="#012b7e" points="613.471,-128.546 624.419,-127.911 617.905,-126.233 622.338,-123.921 622.338,-123.921 622.338,-123.921 617.905,-126.233 620.257,-119.931 613.471,-128.546 613.471,-128.546"/>
</g>
<!-- Question -->
<g id="node5" class="node"><title>Question</title>
<polyline fill="none" stroke="black" points="489.5,-248.5 600.5,-248.5 "/>
<path fill="none" stroke="black" d="M600.5,-248.5C606.5,-248.5 612.5,-254.5 612.5,-260.5"/>
<polyline fill="none" stroke="black" points="612.5,-260.5 612.5,-327.5 "/>
<path fill="none" stroke="black" d="M612.5,-327.5C612.5,-333.5 606.5,-339.5 600.5,-339.5"/>
<polyline fill="none" stroke="black" points="600.5,-339.5 489.5,-339.5 "/>
<path fill="none" stroke="black" d="M489.5,-339.5C483.5,-339.5 477.5,-333.5 477.5,-327.5"/>
<polyline fill="none" stroke="black" points="477.5,-327.5 477.5,-260.5 "/>
<path fill="none" stroke="black" d="M477.5,-260.5C477.5,-254.5 483.5,-248.5 489.5,-248.5"/>
<text text-anchor="middle" x="545" y="-322.9" font-family="Times,serif" font-size="14.00">Question</text>
<polyline fill="none" stroke="black" points="477.5,-316.5 612.5,-316.5 "/>
<text text-anchor="start" x="485.5" y="-299.9" font-family="Times,serif" font-size="14.00">id :integer</text>
<text text-anchor="start" x="485.5" y="-284.9" font-family="Times,serif" font-size="14.00">question :text</text>
<text text-anchor="start" x="485.5" y="-269.9" font-family="Times,serif" font-size="14.00">created_at :datetime</text>
<text text-anchor="start" x="485.5" y="-254.9" font-family="Times,serif" font-size="14.00">updated_at :datetime</text>
</g>
<!-- Question&#45;&gt;Visitor -->
<g id="edge12" class="edge"><title>Question&#45;&gt;Visitor</title>
<path fill="none" stroke="#faa2d3" d="M583.659,-239.878C594.639,-224.505 606.955,-207.263 619.206,-190.111"/>
<polygon fill="#faa2d3" stroke="#faa2d3" points="583.353,-240.305 573.879,-245.827 580.447,-244.374 577.541,-248.443 577.541,-248.443 577.541,-248.443 580.447,-244.374 581.203,-251.058 583.353,-240.305 583.353,-240.305"/>
<polygon fill="#faa2d3" stroke="#faa2d3" points="619.397,-189.845 628.871,-184.323 622.303,-185.776 625.209,-181.707 625.209,-181.707 625.209,-181.707 622.303,-185.776 621.547,-179.092 619.397,-189.845 619.397,-189.845"/>
</g>
<!-- Survey -->
<g id="node6" class="node"><title>Survey</title>
<polyline fill="none" stroke="black" points="641.5,-233.5 752.5,-233.5 "/>
<path fill="none" stroke="black" d="M752.5,-233.5C758.5,-233.5 764.5,-239.5 764.5,-245.5"/>
<polyline fill="none" stroke="black" points="764.5,-245.5 764.5,-342.5 "/>
<path fill="none" stroke="black" d="M764.5,-342.5C764.5,-348.5 758.5,-354.5 752.5,-354.5"/>
<polyline fill="none" stroke="black" points="752.5,-354.5 641.5,-354.5 "/>
<path fill="none" stroke="black" d="M641.5,-354.5C635.5,-354.5 629.5,-348.5 629.5,-342.5"/>
<polyline fill="none" stroke="black" points="629.5,-342.5 629.5,-245.5 "/>
<path fill="none" stroke="black" d="M629.5,-245.5C629.5,-239.5 635.5,-233.5 641.5,-233.5"/>
<text text-anchor="middle" x="697" y="-337.9" font-family="Times,serif" font-size="14.00">Survey</text>
<polyline fill="none" stroke="black" points="629.5,-331.5 764.5,-331.5 "/>
<text text-anchor="start" x="637.5" y="-314.9" font-family="Times,serif" font-size="14.00">id :integer</text>
<text text-anchor="start" x="637.5" y="-299.9" font-family="Times,serif" font-size="14.00">group_id :integer</text>
<text text-anchor="start" x="637.5" y="-284.9" font-family="Times,serif" font-size="14.00">question_id :integer</text>
<text text-anchor="start" x="637.5" y="-269.9" font-family="Times,serif" font-size="14.00">answer :string</text>
<text text-anchor="start" x="637.5" y="-254.9" font-family="Times,serif" font-size="14.00">created_at :datetime</text>
<text text-anchor="start" x="637.5" y="-239.9" font-family="Times,serif" font-size="14.00">updated_at :datetime</text>
</g>
<!-- TexasZipcode -->
<g id="node7" class="node"><title>TexasZipcode</title>
<polyline fill="none" stroke="black" points="793.5,-248.5 878.5,-248.5 "/>
<path fill="none" stroke="black" d="M878.5,-248.5C884.5,-248.5 890.5,-254.5 890.5,-260.5"/>
<polyline fill="none" stroke="black" points="890.5,-260.5 890.5,-327.5 "/>
<path fill="none" stroke="black" d="M890.5,-327.5C890.5,-333.5 884.5,-339.5 878.5,-339.5"/>
<polyline fill="none" stroke="black" points="878.5,-339.5 793.5,-339.5 "/>
<path fill="none" stroke="black" d="M793.5,-339.5C787.5,-339.5 781.5,-333.5 781.5,-327.5"/>
<polyline fill="none" stroke="black" points="781.5,-327.5 781.5,-260.5 "/>
<path fill="none" stroke="black" d="M781.5,-260.5C781.5,-254.5 787.5,-248.5 793.5,-248.5"/>
<text text-anchor="middle" x="836" y="-322.9" font-family="Times,serif" font-size="14.00">TexasZipcode</text>
<polyline fill="none" stroke="black" points="781.5,-316.5 890.5,-316.5 "/>
<text text-anchor="start" x="789.5" y="-299.9" font-family="Times,serif" font-size="14.00">id :integer</text>
<text text-anchor="start" x="789.5" y="-284.9" font-family="Times,serif" font-size="14.00">zip_code :string</text>
<text text-anchor="start" x="789.5" y="-269.9" font-family="Times,serif" font-size="14.00">city :string</text>
<text text-anchor="start" x="789.5" y="-254.9" font-family="Times,serif" font-size="14.00">county :string</text>
</g>
<!-- TexasZipcode&#45;&gt;Visitor -->
<g id="edge18" class="edge"><title>TexasZipcode&#45;&gt;Visitor</title>
<path fill="none" stroke="#215f9f" d="M798.471,-241.819C787.03,-225.912 774.053,-207.869 761.154,-189.933"/>
<ellipse fill="none" stroke="#215f9f" cx="800.899" cy="-245.195" rx="4.00002" ry="4.00002"/>
<polygon fill="#215f9f" stroke="#215f9f" points="761.077,-189.826 758.891,-179.08 758.157,-185.767 755.238,-181.707 755.238,-181.707 755.238,-181.707 758.157,-185.767 751.585,-184.335 761.077,-189.826 761.077,-189.826"/>
</g>
<!-- Zipcode -->
<g id="node9" class="node"><title>Zipcode</title>
<polyline fill="none" stroke="black" points="957.5,-233.5 1068.5,-233.5 "/>
<path fill="none" stroke="black" d="M1068.5,-233.5C1074.5,-233.5 1080.5,-239.5 1080.5,-245.5"/>
<polyline fill="none" stroke="black" points="1080.5,-245.5 1080.5,-342.5 "/>
<path fill="none" stroke="black" d="M1080.5,-342.5C1080.5,-348.5 1074.5,-354.5 1068.5,-354.5"/>
<polyline fill="none" stroke="black" points="1068.5,-354.5 957.5,-354.5 "/>
<path fill="none" stroke="black" d="M957.5,-354.5C951.5,-354.5 945.5,-348.5 945.5,-342.5"/>
<polyline fill="none" stroke="black" points="945.5,-342.5 945.5,-245.5 "/>
<path fill="none" stroke="black" d="M945.5,-245.5C945.5,-239.5 951.5,-233.5 957.5,-233.5"/>
<text text-anchor="middle" x="1013" y="-337.9" font-family="Times,serif" font-size="14.00">Zipcode</text>
<polyline fill="none" stroke="black" points="945.5,-331.5 1080.5,-331.5 "/>
<text text-anchor="start" x="953.5" y="-314.9" font-family="Times,serif" font-size="14.00">zip_code :string</text>
<text text-anchor="start" x="953.5" y="-299.9" font-family="Times,serif" font-size="14.00">city :string</text>
<text text-anchor="start" x="953.5" y="-284.9" font-family="Times,serif" font-size="14.00">county :string</text>
<text text-anchor="start" x="953.5" y="-269.9" font-family="Times,serif" font-size="14.00">created_at :datetime</text>
<text text-anchor="start" x="953.5" y="-254.9" font-family="Times,serif" font-size="14.00">updated_at :datetime</text>
<text text-anchor="start" x="953.5" y="-239.9" font-family="Times,serif" font-size="14.00">state :string</text>
</g>
<!-- Zipcode&#45;&gt;Visitor -->
<g id="edge24" class="edge"><title>Zipcode&#45;&gt;Visitor</title>
<path fill="none" stroke="#f5082e" d="M945.266,-228.059C940.874,-224.537 936.434,-221.155 932,-218 880.063,-181.045 815.993,-147.902 766.826,-124.747"/>
<ellipse fill="none" stroke="#f5082e" cx="948.568" cy="-230.771" rx="4.00002" ry="4.00002"/>
<polygon fill="#f5082e" stroke="#f5082e" points="766.573,-124.629 759.418,-116.319 762.043,-122.512 757.513,-120.396 757.513,-120.396 757.513,-120.396 762.043,-122.512 755.608,-124.473 766.573,-124.629 766.573,-124.629"/>
</g>
<!-- ActiveRecord::Base -->
<g id="node10" class="node"><title>ActiveRecord::Base</title>
<ellipse fill="none" stroke="black" cx="621" cy="-445" rx="85.1424" ry="18"/>
<text text-anchor="middle" x="621" y="-439.9" font-family="Times,serif" font-size="14.00">ActiveRecord::Base</text>
</g>
<!-- ActiveRecord::Base&#45;&gt;Admin -->
<g id="edge2" class="edge"><title>ActiveRecord::Base&#45;&gt;Admin</title>
<path fill="none" stroke="black" d="M587.446,-428.249C569.868,-420.208 547.734,-411.21 527,-406 370.193,-366.595 313.374,-434.236 165,-370 162.055,-368.725 159.139,-367.313 156.258,-365.785"/>
</g>
<!-- ActiveRecord::Base&#45;&gt;Country -->
<g id="edge6" class="edge"><title>ActiveRecord::Base&#45;&gt;Country</title>
<path fill="none" stroke="black" d="M586.404,-428.465C568.929,-420.679 547.198,-411.841 527,-406 436.033,-379.691 401.099,-413.525 317,-370 302.582,-362.538 289.187,-351.371 277.784,-339.878"/>
</g>
<!-- ActiveRecord::Base&#45;&gt;Group -->
<g id="edge10" class="edge"><title>ActiveRecord::Base&#45;&gt;Group</title>
<path fill="none" stroke="black" d="M579.94,-429.084C548.143,-415.76 503.8,-394.943 469,-370 459.597,-363.26 450.291,-355.327 441.586,-347.174"/>
</g>
<!-- ActiveRecord::Base&#45;&gt;Question -->
<g id="edge14" class="edge"><title>ActiveRecord::Base&#45;&gt;Question</title>
<path fill="none" stroke="black" d="M611.983,-427.085C601.21,-405.68 582.784,-369.07 567.981,-339.66"/>
</g>
<!-- ActiveRecord::Base&#45;&gt;Survey -->
<g id="edge16" class="edge"><title>ActiveRecord::Base&#45;&gt;Survey</title>
<path fill="none" stroke="black" d="M630.017,-427.085C639.021,-409.195 653.37,-380.685 666.482,-354.634"/>
</g>
<!-- ActiveRecord::Base&#45;&gt;TexasZipcode -->
<g id="edge20" class="edge"><title>ActiveRecord::Base&#45;&gt;TexasZipcode</title>
<path fill="none" stroke="black" d="M664.064,-429.442C696.115,-416.57 739.863,-396.173 773,-370 784.028,-361.289 794.455,-350.361 803.535,-339.53"/>
</g>
<!-- ActiveRecord::Base&#45;&gt;Visitor -->
<g id="edge22" class="edge"><title>ActiveRecord::Base&#45;&gt;Visitor</title>
<path fill="none" stroke="black" d="M693.248,-435.512C766.993,-424.17 874.074,-402.542 899,-370 940.079,-316.369 932.12,-276.88 899,-218 868.974,-164.619 806.427,-131.073 757.542,-111.957"/>
</g>
<!-- ActiveRecord::Base&#45;&gt;Zipcode -->
<g id="edge26" class="edge"><title>ActiveRecord::Base&#45;&gt;Zipcode</title>
<path fill="none" stroke="black" d="M698.447,-437.521C763.891,-428.655 858.448,-409.715 932,-370 939.975,-365.694 947.752,-360.407 955.134,-354.645"/>
</g>
</g>
</svg>
