<?xml version="1.0" encoding="UTF-8" standalone="no"?>
<!DOCTYPE svg PUBLIC "-//W3C//DTD SVG 1.1//EN"
 "http://www.w3.org/Graphics/SVG/1.1/DTD/svg11.dtd">
<!-- Generated by graphviz version 2.26.3 (20100126.1600)
 -->
<!-- Title: models_diagram Pages: 1 -->
<svg width="750pt" height="230pt"
 viewBox="0.00 0.00 750.00 230.00" xmlns="http://www.w3.org/2000/svg" xmlns:xlink="http://www.w3.org/1999/xlink">
<g id="graph1" class="graph" transform="scale(1 1) rotate(0) translate(4 226)">
<title>models_diagram</title>
<polygon fill="none" stroke="none" points="-4,5 -4,-226 747,-226 747,5 -4,5"/>
<!-- _diagram_info -->
<g id="node1" class="node"><title>_diagram_info</title>
<text text-anchor="start" x="60" y="-206.3" font-family="Times,serif" font-size="13.00">Models diagram</text>
<text text-anchor="start" x="60" y="-192.3" font-family="Times,serif" font-size="13.00">Date: Oct 30 2015 &#45; 18:26</text>
<text text-anchor="start" x="60" y="-178.3" font-family="Times,serif" font-size="13.00">Migration version: 20151025051302</text>
<text text-anchor="start" x="60" y="-164.3" font-family="Times,serif" font-size="13.00">Generated by RailRoady 1.3.1</text>
<text text-anchor="start" x="60" y="-150.3" font-family="Times,serif" font-size="13.00">http://railroady.prestonlee.com</text>
</g>
<!-- Admin -->
<g id="node2" class="node"><title>Admin</title>
<ellipse fill="none" stroke="black" cx="37" cy="-90" rx="37.0467" ry="18"/>
<text text-anchor="middle" x="37" y="-84.9" font-family="Times,serif" font-size="14.00">Admin</text>
</g>
<!-- Country -->
<g id="node3" class="node"><title>Country</title>
<ellipse fill="none" stroke="black" cx="133" cy="-90" rx="40.9464" ry="18"/>
<text text-anchor="middle" x="133" y="-84.9" font-family="Times,serif" font-size="14.00">Country</text>
</g>
<!-- Visitor -->
<g id="node8" class="node"><title>Visitor</title>
<ellipse fill="none" stroke="black" cx="430" cy="-18" rx="35.8982" ry="18"/>
<text text-anchor="middle" x="430" y="-12.9" font-family="Times,serif" font-size="14.00">Visitor</text>
</g>
<!-- Country&#45;&gt;Visitor -->
<g id="edge4" class="edge"><title>Country&#45;&gt;Visitor</title>
<path fill="none" stroke="#2bbeaf" d="M171.718,-75.503C175.509,-74.2522 179.315,-73.0612 183,-72 252.899,-51.8704 335.802,-35.1742 385.584,-25.9012"/>
<ellipse fill="none" stroke="#2bbeaf" cx="167.787" cy="-76.8419" rx="4.00001" ry="4.00001"/>
<polygon fill="#2bbeaf" stroke="#2bbeaf" points="385.854,-25.8514 396.505,-28.4618 390.771,-24.944 395.688,-24.0365 395.688,-24.0365 395.688,-24.0365 390.771,-24.944 394.872,-19.6112 385.854,-25.8514 385.854,-25.8514"/>
</g>
<!-- Group -->
<g id="node4" class="node"><title>Group</title>
<ellipse fill="none" stroke="black" cx="226" cy="-90" rx="33.9477" ry="18"/>
<text text-anchor="middle" x="226" y="-84.9" font-family="Times,serif" font-size="14.00">Group</text>
</g>
<!-- Group&#45;&gt;Visitor -->
<g id="edge8" class="edge"><title>Group&#45;&gt;Visitor</title>
<path fill="none" stroke="#3b60cd" d="M260.368,-75.3529C263.278,-74.1923 266.183,-73.0603 269,-72 309.633,-56.7044 356.795,-41.1369 389.529,-30.672"/>
<ellipse fill="none" stroke="#3b60cd" cx="256.422" cy="-76.9563" rx="4.00001" ry="4.00001"/>
<polygon fill="#3b60cd" stroke="#3b60cd" points="389.672,-30.6265 400.565,-31.8821 394.436,-29.1103 399.201,-27.594 399.201,-27.594 399.201,-27.594 394.436,-29.1103 397.836,-23.3059 389.672,-30.6265 389.672,-30.6265"/>
</g>
<!-- Question -->
<g id="node5" class="node"><title>Question</title>
<ellipse fill="none" stroke="black" cx="322" cy="-90" rx="44.1961" ry="18"/>
<text text-anchor="middle" x="322" y="-84.9" font-family="Times,serif" font-size="14.00">Question</text>
</g>
<!-- Question&#45;&gt;Visitor -->
<g id="edge12" class="edge"><title>Question&#45;&gt;Visitor</title>
<path fill="none" stroke="#e89c9c" d="M353.945,-68.703C368.464,-59.024 385.551,-47.6327 399.847,-38.1017"/>
<polygon fill="#e89c9c" stroke="#e89c9c" points="353.489,-69.0071 342.673,-70.81 349.329,-71.7807 345.169,-74.5542 345.169,-74.5542 345.169,-74.5542 349.329,-71.7807 347.665,-78.2984 353.489,-69.0071 353.489,-69.0071"/>
<polygon fill="#e89c9c" stroke="#e89c9c" points="400.02,-37.9868 410.837,-36.184 404.18,-35.2133 408.34,-32.4397 408.34,-32.4397 408.34,-32.4397 404.18,-35.2133 405.844,-28.6955 400.02,-37.9868 400.02,-37.9868"/>
</g>
<!-- Survey -->
<g id="node6" class="node"><title>Survey</title>
<ellipse fill="none" stroke="black" cx="420" cy="-90" rx="35.8982" ry="18"/>
<text text-anchor="middle" x="420" y="-84.9" font-family="Times,serif" font-size="14.00">Survey</text>
</g>
<!-- TexasZipcode -->
<g id="node7" class="node"><title>TexasZipcode</title>
<ellipse fill="none" stroke="black" cx="538" cy="-90" rx="63.8455" ry="18"/>
<text text-anchor="middle" x="538" y="-84.9" font-family="Times,serif" font-size="14.00">TexasZipcode</text>
</g>
<!-- TexasZipcode&#45;&gt;Visitor -->
<g id="edge18" class="edge"><title>TexasZipcode&#45;&gt;Visitor</title>
<path fill="none" stroke="#d46b25" d="M506.178,-68.7853C491.63,-59.0868 474.483,-47.6555 460.145,-38.0965"/>
<ellipse fill="none" stroke="#d46b25" cx="509.623" cy="-71.082" rx="4.00002" ry="4.00002"/>
<polygon fill="#d46b25" stroke="#d46b25" points="459.949,-37.9659 454.124,-28.6746 455.788,-35.1923 451.628,-32.4188 451.628,-32.4188 451.628,-32.4188 455.788,-35.1923 449.132,-36.1631 459.949,-37.9659 459.949,-37.9659"/>
</g>
<!-- Zipcode -->
<g id="node9" class="node"><title>Zipcode</title>
<ellipse fill="none" stroke="black" cx="700" cy="-90" rx="42.2463" ry="18"/>
<text text-anchor="middle" x="700" y="-84.9" font-family="Times,serif" font-size="14.00">Zipcode</text>
</g>
<!-- Zipcode&#45;&gt;Visitor -->
<g id="edge24" class="edge"><title>Zipcode&#45;&gt;Visitor</title>
<path fill="none" stroke="#b08cd1" d="M658.871,-76.4504C653.876,-74.9022 648.832,-73.3846 644,-72 585.005,-55.0941 516.067,-38.2057 472.717,-27.9301"/>
<ellipse fill="none" stroke="#b08cd1" cx="662.829" cy="-77.6943" rx="4.00001" ry="4.00001"/>
<polygon fill="#b08cd1" stroke="#b08cd1" points="472.536,-27.8873 463.837,-21.21 467.67,-26.7384 462.803,-25.5896 462.803,-25.5896 462.803,-25.5896 467.67,-26.7384 461.769,-29.9692 472.536,-27.8873 472.536,-27.8873"/>
</g>
<!-- ActiveRecord::Base -->
<g id="node10" class="node"><title>ActiveRecord::Base</title>
<ellipse fill="none" stroke="black" cx="371" cy="-183" rx="85.1424" ry="18"/>
<text text-anchor="middle" x="371" y="-177.9" font-family="Times,serif" font-size="14.00">ActiveRecord::Base</text>
</g>
<!-- ActiveRecord::Base&#45;&gt;Admin -->
<g id="edge2" class="edge"><title>ActiveRecord::Base&#45;&gt;Admin</title>
<path fill="none" stroke="black" d="M335.928,-166.388C318.521,-158.679 296.988,-149.929 277,-144 192.927,-119.06 167.322,-132.086 83,-108 77.0629,-106.304 70.8268,-104.138 64.9294,-101.901"/>
</g>
<!-- ActiveRecord::Base&#45;&gt;Country -->
<g id="edge6" class="edge"><title>ActiveRecord::Base&#45;&gt;Country</title>
<path fill="none" stroke="black" d="M332.705,-166.761C315.699,-159.64 295.406,-151.267 277,-144 238.506,-128.802 193.837,-112.212 164.582,-101.487"/>
</g>
<!-- ActiveRecord::Base&#45;&gt;Group -->
<g id="edge10" class="edge"><title>ActiveRecord::Base&#45;&gt;Group</title>
<path fill="none" stroke="black" d="M344.066,-165.725C316.384,-147.971 273.797,-120.656 248.048,-104.141"/>
</g>
<!-- ActiveRecord::Base&#45;&gt;Question -->
<g id="edge14" class="edge"><title>ActiveRecord::Base&#45;&gt;Question</title>
<path fill="none" stroke="black" d="M361.552,-165.069C352.876,-148.6 340.086,-124.327 331.419,-107.876"/>
</g>
<!-- ActiveRecord::Base&#45;&gt;Survey -->
<g id="edge16" class="edge"><title>ActiveRecord::Base&#45;&gt;Survey</title>
<path fill="none" stroke="black" d="M380.448,-165.069C389.18,-148.495 402.078,-124.016 410.747,-107.561"/>
</g>
<!-- ActiveRecord::Base&#45;&gt;TexasZipcode -->
<g id="edge20" class="edge"><title>ActiveRecord::Base&#45;&gt;TexasZipcode</title>
<path fill="none" stroke="black" d="M401.242,-166.158C431.884,-149.094 478.949,-122.885 509.1,-106.094"/>
</g>
<!-- ActiveRecord::Base&#45;&gt;Visitor -->
<g id="edge22" class="edge"><title>ActiveRecord::Base&#45;&gt;Visitor</title>
<path fill="none" stroke="black" d="M436.431,-171.496C500.069,-158.817 590.12,-136.401 611,-108 651.016,-53.5709 528.508,-30.1091 465.271,-21.8186"/>
</g>
<!-- ActiveRecord::Base&#45;&gt;Zipcode -->
<g id="edge26" class="edge"><title>ActiveRecord::Base&#45;&gt;Zipcode</title>
<path fill="none" stroke="black" d="M424.55,-169.015C479.735,-154.434 568.16,-130.595 644,-108 651.34,-105.813 659.186,-103.363 666.611,-100.991"/>
</g>
</g>
</svg>
